<svg xmlns="http://www.w3.org/2000/svg" xmlns:xlink="http://www.w3.org/1999/xlink" width="150" zoomAndPan="magnify" viewBox="0 0 112.5 112.499997" height="150" preserveAspectRatio="xMidYMid meet" version="1.2"><defs><clipPath id="cd07ab6b36"><path d="M 3.683594 5.125 L 108.21875 5.125 L 108.21875 73 L 3.683594 73 Z M 3.683594 5.125 "/></clipPath><clipPath id="2e5a2f8d90"><path d="M 5 90 L 51 90 L 51 106.671875 L 5 106.671875 Z M 5 90 "/></clipPath></defs><g id="e64c2a2b89"><g clip-rule="nonzero" clip-path="url(#cd07ab6b36)"><path style=" stroke:none;fill-rule:evenodd;fill:#000000;fill-opacity:1;" d="M 3.714844 5.125 L 108.191406 5.125 L 108.191406 72.375 L 3.714844 72.375 Z M 3.714844 5.125 "/></g><path style=" stroke:none;fill-rule:evenodd;fill:#ffffff;fill-opacity:1;" d="M 8.359375 9.96875 L 103.542969 9.96875 L 103.542969 68.125 L 8.359375 68.125 Z M 8.359375 9.96875 "/><path style=" stroke:none;fill-rule:evenodd;fill:#fa3f36;fill-opacity:1;" d="M 70.492188 34.6875 L 42.695312 49.503906 L 42.695312 19.867188 Z M 70.492188 34.6875 "/><path style=" stroke:none;fill-rule:evenodd;fill:#000000;fill-opacity:1;" d="M 14.222656 57.78125 L 98.964844 57.78125 L 98.964844 60.296875 L 14.222656 60.296875 Z M 14.222656 57.78125 "/><path style=" stroke:none;fill-rule:nonzero;fill:#fa3f36;fill-opacity:1;" d="M 61.90625 59.039062 C 61.90625 59.433594 61.828125 59.8125 61.679688 60.175781 C 61.527344 60.542969 61.3125 60.863281 61.03125 61.140625 C 60.753906 61.421875 60.433594 61.636719 60.066406 61.785156 C 59.703125 61.9375 59.324219 62.011719 58.929688 62.011719 C 58.535156 62.011719 58.152344 61.9375 57.789062 61.785156 C 57.425781 61.636719 57.101562 61.421875 56.824219 61.140625 C 56.546875 60.863281 56.328125 60.542969 56.179688 60.175781 C 56.027344 59.8125 55.953125 59.433594 55.953125 59.039062 C 55.953125 58.644531 56.027344 58.265625 56.179688 57.902344 C 56.328125 57.539062 56.546875 57.214844 56.824219 56.9375 C 57.101562 56.660156 57.425781 56.445312 57.789062 56.292969 C 58.152344 56.140625 58.535156 56.066406 58.929688 56.066406 C 59.324219 56.066406 59.703125 56.140625 60.066406 56.292969 C 60.433594 56.445312 60.753906 56.660156 61.03125 56.9375 C 61.3125 57.214844 61.527344 57.539062 61.679688 57.902344 C 61.828125 58.265625 61.90625 58.644531 61.90625 59.039062 Z M 61.90625 59.039062 "/><path style=" stroke:none;fill-rule:nonzero;fill:#ffe4ad;fill-opacity:1;" d="M 44.988281 65.902344 C 44.988281 66.4375 44.964844 66.972656 44.910156 67.507812 C 44.859375 68.042969 44.777344 68.574219 44.675781 69.101562 C 44.570312 69.625 44.4375 70.148438 44.28125 70.660156 C 44.125 71.175781 43.945312 71.679688 43.738281 72.175781 C 43.535156 72.671875 43.304688 73.15625 43.050781 73.628906 C 42.796875 74.105469 42.523438 74.5625 42.222656 75.011719 C 41.925781 75.457031 41.605469 75.886719 41.265625 76.304688 C 40.921875 76.71875 40.5625 77.117188 40.183594 77.496094 C 39.800781 77.875 39.402344 78.234375 38.988281 78.574219 C 38.574219 78.917969 38.140625 79.234375 37.695312 79.535156 C 37.246094 79.832031 36.785156 80.109375 36.3125 80.363281 C 35.839844 80.613281 35.351562 80.84375 34.855469 81.050781 C 34.359375 81.253906 33.855469 81.4375 33.339844 81.589844 C 32.824219 81.746094 32.304688 81.878906 31.777344 81.984375 C 31.25 82.085938 30.71875 82.167969 30.183594 82.21875 C 29.648438 82.273438 29.113281 82.296875 28.574219 82.296875 C 28.039062 82.296875 27.5 82.273438 26.964844 82.21875 C 26.429688 82.167969 25.898438 82.085938 25.375 81.984375 C 24.847656 81.878906 24.324219 81.746094 23.808594 81.589844 C 23.296875 81.4375 22.789062 81.253906 22.292969 81.050781 C 21.796875 80.84375 21.3125 80.613281 20.835938 80.363281 C 20.363281 80.109375 19.902344 79.832031 19.457031 79.535156 C 19.007812 79.234375 18.578125 78.917969 18.164062 78.574219 C 17.746094 78.234375 17.347656 77.875 16.96875 77.496094 C 16.589844 77.117188 16.226562 76.71875 15.886719 76.304688 C 15.546875 75.886719 15.226562 75.457031 14.925781 75.011719 C 14.628906 74.5625 14.351562 74.105469 14.097656 73.628906 C 13.847656 73.15625 13.617188 72.671875 13.410156 72.175781 C 13.203125 71.679688 13.023438 71.175781 12.867188 70.660156 C 12.710938 70.148438 12.582031 69.625 12.476562 69.101562 C 12.371094 68.574219 12.292969 68.042969 12.238281 67.507812 C 12.1875 66.972656 12.160156 66.4375 12.160156 65.902344 C 12.160156 65.363281 12.1875 64.828125 12.238281 64.292969 C 12.292969 63.757812 12.371094 63.230469 12.476562 62.703125 C 12.582031 62.175781 12.710938 61.65625 12.867188 61.140625 C 13.023438 60.628906 13.203125 60.121094 13.410156 59.625 C 13.617188 59.128906 13.847656 58.644531 14.097656 58.171875 C 14.351562 57.699219 14.628906 57.238281 14.925781 56.792969 C 15.226562 56.34375 15.546875 55.914062 15.886719 55.5 C 16.226562 55.082031 16.589844 54.6875 16.96875 54.304688 C 17.347656 53.925781 17.746094 53.566406 18.164062 53.226562 C 18.578125 52.886719 19.007812 52.566406 19.457031 52.265625 C 19.902344 51.96875 20.363281 51.691406 20.835938 51.441406 C 21.3125 51.1875 21.796875 50.957031 22.292969 50.753906 C 22.789062 50.546875 23.296875 50.367188 23.808594 50.210938 C 24.324219 50.054688 24.847656 49.925781 25.375 49.820312 C 25.898438 49.714844 26.429688 49.636719 26.964844 49.582031 C 27.5 49.53125 28.039062 49.503906 28.574219 49.503906 C 29.113281 49.503906 29.648438 49.53125 30.183594 49.582031 C 30.71875 49.636719 31.25 49.714844 31.777344 49.820312 C 32.304688 49.925781 32.824219 50.054688 33.339844 50.210938 C 33.855469 50.367188 34.359375 50.546875 34.855469 50.753906 C 35.351562 50.957031 35.839844 51.1875 36.3125 51.441406 C 36.785156 51.691406 37.246094 51.96875 37.695312 52.265625 C 38.140625 52.566406 38.574219 52.886719 38.988281 53.226562 C 39.402344 53.566406 39.800781 53.925781 40.183594 54.304688 C 40.5625 54.6875 40.921875 55.082031 41.265625 55.5 C 41.605469 55.914062 41.925781 56.34375 42.222656 56.792969 C 42.523438 57.238281 42.796875 57.699219 43.050781 58.171875 C 43.304688 58.644531 43.535156 59.128906 43.738281 59.625 C 43.945312 60.121094 44.125 60.628906 44.28125 61.140625 C 44.4375 61.65625 44.570312 62.175781 44.675781 62.703125 C 44.777344 63.230469 44.859375 63.757812 44.910156 64.292969 C 44.964844 64.828125 44.988281 65.363281 44.988281 65.902344 Z M 44.988281 65.902344 "/><path style=" stroke:none;fill-rule:evenodd;fill:#ffe4ad;fill-opacity:1;" d="M 24.292969 81.023438 L 23.332031 90.984375 L 33.496094 90.984375 L 32.808594 81.015625 Z M 24.292969 81.023438 "/><path style=" stroke:none;fill-rule:evenodd;fill:#000000;fill-opacity:1;" d="M 25.992188 46.191406 C 27.136719 46.144531 31.175781 44.933594 32.652344 45.875 C 33.605469 46.484375 34.148438 48.285156 35.050781 48.550781 C 37.054688 49.148438 38.078125 47.945312 40.253906 49.203125 C 42.617188 50.574219 41.597656 53.007812 43.089844 54.613281 C 44.773438 56.429688 47.691406 56.648438 48.539062 59.339844 C 49.394531 62.050781 47.421875 64.253906 47.527344 66.90625 C 47.601562 68.71875 48.917969 70.320312 48.503906 72.167969 C 48.488281 72.238281 48.46875 72.3125 48.449219 72.386719 C 47.949219 74.019531 46.195312 74.65625 45.40625 76.070312 C 44.769531 77.214844 45.074219 78.582031 44.359375 79.714844 C 43.910156 80.421875 43.246094 81.023438 42.496094 81.402344 C 39.453125 82.9375 31.554688 85.847656 28.039062 85.421875 C 21.820312 84.667969 15.980469 82.816406 15.324219 82.09375 C 14.3125 80.972656 13.019531 76.839844 12.230469 75.722656 C 11.300781 74.40625 9.40625 73.421875 9.199219 71.695312 C 8.980469 69.878906 10.496094 68.753906 10.753906 67.121094 C 11.058594 65.1875 9.636719 63.320312 10.046875 61.339844 C 10.101562 61.085938 10.1875 60.835938 10.300781 60.601562 C 10.839844 59.464844 12.574219 59.222656 12.941406 58.125 C 13.484375 56.5 11.640625 55.140625 13.101562 53.414062 C 14.402344 51.882812 15.648438 51.558594 17.171875 50.59375 C 17.714844 50.25 18.21875 47.929688 19.667969 46.777344 C 21.472656 45.339844 25.75 46.203125 25.992188 46.191406 Z M 25.992188 46.191406 "/><g clip-rule="nonzero" clip-path="url(#2e5a2f8d90)"><path style=" stroke:none;fill-rule:evenodd;fill:#22afcb;fill-opacity:1;" d="M 5.902344 106.671875 C 5.902344 106.671875 4.625 100.644531 8.574219 95.742188 C 12.523438 90.839844 24.890625 90.070312 24.890625 90.070312 L 32.902344 90.070312 C 32.902344 90.070312 44.355469 90.839844 48.011719 95.742188 C 51.664062 100.644531 50.484375 106.671875 50.484375 106.671875 Z M 5.902344 106.671875 "/></g></g></svg>