<svg xmlns="http://www.w3.org/2000/svg" xmlns:xlink="http://www.w3.org/1999/xlink" width="60" zoomAndPan="magnify" viewBox="0 0 45 44.999999" height="60" preserveAspectRatio="xMidYMid meet" version="1.2"><defs><clipPath id="0c79cf9fc2"><path d="M 5.585938 4.808594 L 39.335938 4.808594 L 39.335938 40.058594 L 5.585938 40.058594 Z M 5.585938 4.808594 "/></clipPath></defs><g id="16f7669506"><rect x="0" width="45" y="0" height="44.999999" style="fill:#ffffff;fill-opacity:1;stroke:none;"/><rect x="0" width="45" y="0" height="44.999999" style="fill:#0d0b35;fill-opacity:1;stroke:none;"/><g clip-rule="nonzero" clip-path="url(#0c79cf9fc2)"><path style=" stroke:none;fill-rule:nonzero;fill:#f4f6fc;fill-opacity:1;" d="M 36.789062 9.421875 L 8.152344 9.421875 C 7.847656 9.421875 7.554688 9.363281 7.269531 9.246094 C 6.988281 9.128906 6.738281 8.960938 6.519531 8.746094 C 6.304688 8.527344 6.136719 8.277344 6.019531 7.996094 C 5.902344 7.714844 5.84375 7.417969 5.84375 7.113281 C 5.84375 6.804688 5.902344 6.511719 6.019531 6.230469 C 6.136719 5.945312 6.304688 5.695312 6.519531 5.480469 C 6.738281 5.261719 6.988281 5.097656 7.269531 4.980469 C 7.554688 4.863281 7.847656 4.804688 8.152344 4.804688 L 36.789062 4.804688 C 37.09375 4.804688 37.390625 4.863281 37.671875 4.980469 C 37.953125 5.097656 38.203125 5.261719 38.421875 5.480469 C 38.636719 5.695312 38.804688 5.945312 38.921875 6.230469 C 39.039062 6.511719 39.097656 6.804688 39.097656 7.113281 C 39.097656 7.417969 39.039062 7.714844 38.921875 7.996094 C 38.804688 8.277344 38.636719 8.527344 38.421875 8.746094 C 38.203125 8.960938 37.953125 9.128906 37.671875 9.246094 C 37.390625 9.363281 37.09375 9.421875 36.789062 9.421875 Z M 39.097656 22.4375 C 39.097656 22.128906 39.039062 21.835938 38.921875 21.550781 C 38.804688 21.269531 38.636719 21.019531 38.421875 20.804688 C 38.203125 20.585938 37.953125 20.417969 37.671875 20.300781 C 37.390625 20.183594 37.09375 20.125 36.789062 20.125 L 8.152344 20.125 C 7.847656 20.125 7.554688 20.183594 7.269531 20.300781 C 6.988281 20.417969 6.738281 20.585938 6.519531 20.804688 C 6.304688 21.019531 6.136719 21.269531 6.019531 21.550781 C 5.902344 21.835938 5.84375 22.128906 5.84375 22.4375 C 5.84375 22.742188 5.902344 23.035156 6.019531 23.320312 C 6.136719 23.601562 6.304688 23.851562 6.519531 24.066406 C 6.738281 24.285156 6.988281 24.453125 7.269531 24.570312 C 7.554688 24.6875 7.847656 24.746094 8.152344 24.746094 L 36.789062 24.746094 C 37.09375 24.746094 37.390625 24.6875 37.671875 24.570312 C 37.953125 24.453125 38.203125 24.285156 38.421875 24.066406 C 38.636719 23.851562 38.804688 23.601562 38.921875 23.320312 C 39.039062 23.035156 39.097656 22.742188 39.097656 22.433594 Z M 39.097656 37.757812 C 39.097656 37.453125 39.039062 37.15625 38.921875 36.875 C 38.804688 36.59375 38.636719 36.34375 38.421875 36.125 C 38.203125 35.910156 37.953125 35.742188 37.671875 35.625 C 37.390625 35.507812 37.09375 35.449219 36.789062 35.449219 L 8.152344 35.449219 C 7.847656 35.449219 7.554688 35.507812 7.269531 35.625 C 6.988281 35.742188 6.738281 35.910156 6.519531 36.125 C 6.304688 36.34375 6.136719 36.59375 6.019531 36.875 C 5.902344 37.15625 5.84375 37.453125 5.84375 37.757812 C 5.84375 38.066406 5.902344 38.359375 6.019531 38.640625 C 6.136719 38.925781 6.304688 39.175781 6.519531 39.390625 C 6.738281 39.609375 6.988281 39.773438 7.269531 39.890625 C 7.554688 40.007812 7.847656 40.066406 8.152344 40.066406 L 36.789062 40.066406 C 37.09375 40.066406 37.390625 40.007812 37.671875 39.890625 C 37.953125 39.773438 38.203125 39.609375 38.421875 39.390625 C 38.636719 39.175781 38.804688 38.925781 38.921875 38.640625 C 39.039062 38.359375 39.097656 38.0625 39.097656 37.757812 Z M 39.097656 37.757812 "/></g></g></svg>