<svg xmlns="http://www.w3.org/2000/svg" xmlns:xlink="http://www.w3.org/1999/xlink" width="150" zoomAndPan="magnify" viewBox="0 0 112.5 112.499997" height="150" preserveAspectRatio="xMidYMid meet" version="1.2"><g id="d7e2984fb2"><path style=" stroke:none;fill-rule:nonzero;fill:#caddff;fill-opacity:1;" d="M 12.714844 57.1875 C 20.898438 48.785156 5.480469 33.136719 9.3125 21.832031 C 14.476562 6.609375 56.464844 -6.441406 84.726562 10.128906 C 108.394531 24.007812 117.230469 55.214844 106.890625 67.84375 C 103.796875 71.621094 99.328125 72.65625 94.269531 76.605469 C 89.5625 80.28125 89.035156 81.222656 88.695312 81.859375 C 85.347656 88.175781 92.386719 93.714844 90.96875 99.128906 C 88.734375 107.683594 66.351562 112.25 47.640625 109.351562 C 42.59375 108.574219 17.019531 104.03125 7.613281 85.167969 C 6.886719 83.707031 0 69.609375 6.480469 61.765625 C 8.726562 59.046875 10.535156 59.425781 12.714844 57.1875 "/><path style=" stroke:none;fill-rule:nonzero;fill:#000000;fill-opacity:1;" d="M 73.601562 108.972656 L 28.101562 108.972656 C 26.140625 108.972656 24.753906 107.382812 25 105.421875 L 36.203125 16.570312 C 36.449219 14.609375 38.242188 13.019531 40.203125 13.019531 L 83.417969 12.511719 C 88.378906 12.511719 89.050781 14.609375 88.804688 16.570312 L 77.601562 105.421875 C 77.351562 107.382812 75.5625 108.972656 73.601562 108.972656 "/><path style=" stroke:none;fill-rule:nonzero;fill:#ffffff;fill-opacity:1;" d="M 70.863281 108.972656 L 25.363281 108.972656 C 23.402344 108.972656 22.015625 107.378906 22.261719 105.410156 L 33.464844 16.277344 C 33.714844 14.308594 35.503906 12.710938 37.464844 12.710938 L 82.964844 12.710938 C 84.925781 12.710938 86.3125 14.308594 86.066406 16.277344 L 74.863281 105.410156 C 74.617188 107.378906 72.824219 108.972656 70.863281 108.972656 "/><path style=" stroke:none;fill-rule:nonzero;fill:#caddff;fill-opacity:1;" d="M 24.855469 105.53125 L 35.550781 20.425781 C 35.609375 19.972656 36.023438 19.601562 36.476562 19.601562 L 82.222656 19.601562 C 82.671875 19.601562 82.992188 19.972656 82.9375 20.425781 L 72.238281 105.53125 C 72.183594 105.988281 71.769531 106.355469 71.316406 106.355469 L 25.570312 106.355469 C 25.117188 106.355469 24.796875 105.988281 24.855469 105.53125 "/><path style=" stroke:none;fill-rule:nonzero;fill:#caddff;fill-opacity:1;" d="M 59.644531 17.246094 C 58.910156 17.246094 58.390625 16.648438 58.480469 15.910156 C 58.574219 15.171875 59.246094 14.574219 59.980469 14.574219 C 60.714844 14.574219 61.234375 15.171875 61.140625 15.910156 C 61.050781 16.648438 60.378906 17.246094 59.644531 17.246094 "/><path style=" stroke:none;fill-rule:nonzero;fill:#000000;fill-opacity:1;" d="M 70.863281 109.167969 L 25.363281 109.167969 C 24.363281 109.167969 23.472656 108.777344 22.847656 108.070312 C 22.21875 107.351562 21.941406 106.398438 22.070312 105.386719 L 25.53125 78.824219 C 25.546875 78.71875 25.640625 78.640625 25.75 78.65625 C 25.855469 78.671875 25.929688 78.769531 25.917969 78.875 L 22.453125 105.433594 C 22.339844 106.335938 22.585938 107.179688 23.140625 107.8125 C 23.6875 108.433594 24.476562 108.777344 25.363281 108.777344 L 70.863281 108.777344 C 72.726562 108.777344 74.433594 107.257812 74.671875 105.386719 L 85.875 16.253906 C 85.988281 15.351562 85.742188 14.507812 85.1875 13.875 C 84.640625 13.25 83.851562 12.910156 82.964844 12.910156 L 37.464844 12.910156 C 35.601562 12.910156 33.894531 14.429688 33.65625 16.300781 L 31.3125 32.355469 C 31.296875 32.460938 31.195312 32.535156 31.089844 32.519531 C 30.984375 32.503906 30.910156 32.40625 30.925781 32.296875 L 33.273438 16.25 C 33.53125 14.195312 35.410156 12.519531 37.464844 12.519531 L 82.964844 12.519531 C 83.964844 12.519531 84.855469 12.910156 85.480469 13.617188 C 86.109375 14.335938 86.386719 15.289062 86.257812 16.300781 L 75.054688 105.433594 C 74.796875 107.492188 72.917969 109.167969 70.863281 109.167969 "/><path style=" stroke:none;fill-rule:nonzero;fill:#5479f7;fill-opacity:1;" d="M 53.914062 49.667969 L 35.605469 49.667969 C 35.171875 49.667969 34.863281 49.316406 34.910156 48.882812 L 36.984375 30.339844 C 37.03125 29.90625 37.421875 29.554688 37.855469 29.554688 L 56.160156 29.554688 C 56.59375 29.554688 56.90625 29.90625 56.855469 30.339844 L 54.785156 48.882812 C 54.734375 49.316406 54.347656 49.667969 53.914062 49.667969 "/><path style=" stroke:none;fill-rule:nonzero;fill:#ffffff;fill-opacity:1;" d="M 49.578125 41.273438 C 47.882812 42.8125 45.414062 42.8125 44.066406 41.273438 C 42.714844 39.730469 42.992188 37.230469 44.6875 35.691406 C 46.382812 34.148438 48.851562 34.148438 50.203125 35.691406 C 51.554688 37.230469 51.273438 39.730469 49.578125 41.273438 Z M 51.222656 34.765625 C 49.421875 32.710938 46.136719 32.710938 43.878906 34.765625 C 41.800781 36.652344 41.324219 39.613281 42.660156 41.675781 L 39.179688 44.839844 C 38.886719 45.105469 38.839844 45.535156 39.070312 45.800781 C 39.304688 46.066406 39.730469 46.066406 40.019531 45.800781 L 43.5 42.636719 C 45.359375 44.230469 48.308594 44.089844 50.390625 42.195312 C 52.648438 40.144531 53.019531 36.816406 51.222656 34.765625 "/><path style=" stroke:none;fill-rule:nonzero;fill:#ffffff;fill-opacity:1;" d="M 51.167969 71.890625 L 32.859375 71.890625 C 32.425781 71.890625 32.117188 71.539062 32.164062 71.105469 L 34.234375 52.5625 C 34.285156 52.128906 34.675781 51.777344 35.105469 51.777344 L 53.414062 51.777344 C 53.847656 51.777344 54.15625 52.128906 54.109375 52.5625 L 52.035156 71.105469 C 51.988281 71.539062 51.597656 71.890625 51.167969 71.890625 "/><path style=" stroke:none;fill-rule:nonzero;fill:#5479f7;fill-opacity:1;" d="M 35.554688 65.46875 Z M 43.453125 59.394531 C 41.019531 59.394531 38.753906 61.070312 37.941406 63.464844 C 37.914062 63.542969 37.84375 63.59375 37.761719 63.597656 C 36.765625 63.632812 35.859375 64.480469 35.746094 65.492188 C 35.746094 65.507812 35.742188 65.523438 35.742188 65.539062 C 35.710938 65.898438 35.820312 66.234375 36.046875 66.484375 C 36.277344 66.738281 36.605469 66.878906 36.964844 66.878906 L 48.433594 66.878906 C 49.046875 66.878906 49.605469 66.375 49.679688 65.757812 L 49.875 65.765625 L 49.679688 65.742188 C 49.734375 65.261719 49.609375 64.800781 49.328125 64.449219 C 49.054688 64.113281 48.660156 63.898438 48.210938 63.851562 C 48.117188 63.84375 48.042969 63.765625 48.039062 63.671875 C 47.875 61.195312 45.945312 59.394531 43.453125 59.394531 Z M 48.433594 67.265625 L 36.964844 67.265625 C 36.492188 67.265625 36.066406 67.082031 35.761719 66.75 C 35.457031 66.417969 35.316406 65.976562 35.355469 65.503906 C 35.355469 65.488281 35.359375 65.464844 35.359375 65.445312 C 35.492188 64.277344 36.46875 63.324219 37.617188 63.21875 C 38.515625 60.730469 40.898438 59.003906 43.453125 59.003906 C 46.101562 59.003906 48.164062 60.878906 48.414062 63.488281 C 48.898438 63.578125 49.328125 63.828125 49.628906 64.207031 C 49.976562 64.640625 50.132812 65.199219 50.066406 65.785156 C 50.066406 65.785156 50.066406 65.800781 50.066406 65.804688 C 49.96875 66.609375 49.238281 67.265625 48.433594 67.265625 "/><path style=" stroke:none;fill-rule:nonzero;fill:#5479f7;fill-opacity:1;" d="M 48.9375 61.527344 C 48.898438 61.527344 48.859375 61.515625 48.824219 61.488281 C 48.738281 61.425781 48.71875 61.304688 48.78125 61.21875 C 49.535156 60.167969 49.757812 58.875 49.382812 57.761719 C 49.101562 56.921875 48.503906 56.265625 47.703125 55.910156 C 46.820312 55.515625 45.757812 55.535156 44.792969 55.957031 C 43.792969 56.390625 42.980469 57.222656 42.558594 58.230469 C 42.515625 58.328125 42.402344 58.375 42.300781 58.332031 C 42.203125 58.292969 42.15625 58.175781 42.199219 58.078125 C 42.660156 56.976562 43.546875 56.074219 44.636719 55.597656 C 45.703125 55.132812 46.875 55.117188 47.859375 55.550781 C 48.761719 55.953125 49.433594 56.691406 49.75 57.636719 C 50.167969 58.871094 49.921875 60.292969 49.097656 61.445312 C 49.058594 61.496094 49 61.527344 48.9375 61.527344 "/><path style=" stroke:none;fill-rule:nonzero;fill:#5479f7;fill-opacity:1;" d="M 40.390625 68.464844 C 40.339844 68.464844 40.285156 68.445312 40.246094 68.402344 C 40.175781 68.324219 40.179688 68.199219 40.261719 68.128906 L 43.816406 64.894531 L 41.300781 64.894531 C 41.222656 64.894531 41.148438 64.84375 41.121094 64.769531 C 41.09375 64.691406 41.113281 64.609375 41.171875 64.554688 L 44.53125 61.496094 C 44.613281 61.425781 44.734375 61.433594 44.804688 61.511719 C 44.878906 61.589844 44.871094 61.714844 44.792969 61.785156 L 41.804688 64.503906 L 44.320312 64.503906 C 44.402344 64.503906 44.472656 64.554688 44.503906 64.628906 C 44.53125 64.703125 44.511719 64.789062 44.453125 64.84375 L 40.519531 68.414062 C 40.484375 68.449219 40.4375 68.464844 40.390625 68.464844 "/><path style=" stroke:none;fill-rule:nonzero;fill:#5479f7;fill-opacity:1;" d="M 72.882812 71.890625 L 54.574219 71.890625 C 54.144531 71.890625 53.832031 71.539062 53.878906 71.105469 L 55.953125 52.5625 C 56 52.128906 56.390625 51.777344 56.824219 51.777344 L 75.128906 51.777344 C 75.5625 51.777344 75.875 52.128906 75.824219 52.5625 L 73.753906 71.105469 C 73.703125 71.539062 73.316406 71.890625 72.882812 71.890625 "/><path style=" stroke:none;fill-rule:nonzero;fill:#ffffff;fill-opacity:1;" d="M 61.605469 56.527344 C 60.375 56.527344 59.089844 57.675781 58.117188 59.714844 C 57.0625 61.914062 56.613281 64.597656 57.097656 65.824219 C 57.21875 66.136719 57.398438 66.34375 57.621094 66.429688 C 58.5 66.773438 60.207031 65.464844 61.683594 63.316406 C 61.703125 63.28125 61.730469 63.25 61.753906 63.21875 C 61.796875 63.160156 61.875 63.136719 61.945312 63.148438 C 62.035156 63.167969 62.128906 63.179688 62.222656 63.179688 C 62.660156 63.179688 63.089844 62.976562 63.398438 62.625 C 63.4375 62.585938 63.488281 62.558594 63.546875 62.558594 L 65.953125 62.558594 C 66.019531 62.558594 66.078125 62.59375 66.117188 62.648438 C 66.339844 62.984375 66.710938 63.179688 67.136719 63.179688 C 67.234375 63.179688 67.328125 63.167969 67.425781 63.148438 C 67.507812 63.132812 67.589844 63.171875 67.632812 63.246094 C 67.648438 63.277344 67.667969 63.308594 67.683594 63.34375 C 68.667969 65.472656 70.070312 66.769531 71.019531 66.429688 C 72.300781 65.96875 72.820312 62.625 72.070312 59.679688 C 71.691406 58.207031 71.0625 57.195312 70.246094 56.761719 C 69.730469 56.488281 69.152344 56.457031 68.566406 56.667969 C 68.425781 56.714844 68.292969 56.777344 68.167969 56.851562 C 67.28125 57.363281 66.304688 57.632812 65.34375 57.632812 C 64.378906 57.632812 63.457031 57.359375 62.679688 56.84375 C 62.574219 56.773438 62.453125 56.714844 62.328125 56.664062 C 62.09375 56.570312 61.851562 56.527344 61.605469 56.527344 Z M 57.929688 66.875 C 57.773438 66.875 57.625 66.851562 57.480469 66.792969 C 57.152344 66.664062 56.898438 66.386719 56.734375 65.96875 C 56.210938 64.628906 56.652344 61.871094 57.765625 59.546875 C 59.277344 56.386719 61.1875 55.796875 62.472656 56.300781 C 62.621094 56.359375 62.765625 56.433594 62.894531 56.519531 C 63.609375 56.992188 64.457031 57.242188 65.34375 57.242188 C 66.238281 57.242188 67.144531 56.992188 67.972656 56.511719 C 68.117188 56.429688 68.273438 56.359375 68.433594 56.300781 C 69.125 56.050781 69.8125 56.089844 70.425781 56.417969 C 71.34375 56.90625 72.042969 58 72.445312 59.582031 C 73.175781 62.4375 72.765625 66.214844 71.152344 66.796875 C 69.808594 67.28125 68.25 65.464844 67.351562 63.554688 C 67.28125 63.5625 67.210938 63.570312 67.136719 63.570312 C 66.617188 63.570312 66.15625 63.34375 65.855469 62.949219 L 63.628906 62.949219 C 63.25 63.34375 62.742188 63.570312 62.222656 63.570312 C 62.144531 63.570312 62.066406 63.5625 61.992188 63.554688 C 60.792969 65.296875 59.152344 66.875 57.929688 66.875 "/><path style=" stroke:none;fill-rule:nonzero;fill:#ffffff;fill-opacity:1;" d="M 68.433594 60.457031 C 68.460938 60.199219 68.6875 59.992188 68.941406 59.992188 C 69.195312 59.992188 69.375 60.199219 69.347656 60.457031 C 69.316406 60.710938 69.089844 60.917969 68.839844 60.917969 C 68.585938 60.917969 68.40625 60.710938 68.433594 60.457031 "/><path style=" stroke:none;fill-rule:nonzero;fill:#ffffff;fill-opacity:1;" d="M 68.667969 58.363281 C 68.695312 58.109375 68.921875 57.902344 69.175781 57.902344 C 69.425781 57.902344 69.609375 58.109375 69.582031 58.363281 C 69.550781 58.617188 69.324219 58.824219 69.070312 58.824219 C 68.820312 58.824219 68.636719 58.617188 68.667969 58.363281 "/><path style=" stroke:none;fill-rule:nonzero;fill:#ffffff;fill-opacity:1;" d="M 69.988281 59.871094 C 69.738281 59.871094 69.554688 59.664062 69.585938 59.410156 C 69.613281 59.15625 69.839844 58.945312 70.09375 58.945312 C 70.34375 58.945312 70.527344 59.15625 70.496094 59.410156 C 70.46875 59.664062 70.242188 59.871094 69.988281 59.871094 "/><path style=" stroke:none;fill-rule:nonzero;fill:#ffffff;fill-opacity:1;" d="M 67.921875 59.871094 C 67.667969 59.871094 67.488281 59.664062 67.515625 59.410156 C 67.542969 59.15625 67.773438 58.945312 68.023438 58.945312 C 68.277344 58.945312 68.457031 59.15625 68.429688 59.410156 C 68.402344 59.664062 68.171875 59.871094 67.921875 59.871094 "/><path style=" stroke:none;fill-rule:nonzero;fill:#ffffff;fill-opacity:1;" d="M 62.460938 58.878906 L 61.824219 58.878906 L 61.894531 58.234375 C 61.917969 58.050781 61.785156 57.902344 61.605469 57.902344 L 61.214844 57.902344 C 61.03125 57.902344 60.867188 58.050781 60.847656 58.234375 L 60.773438 58.878906 L 60.140625 58.878906 C 59.957031 58.878906 59.792969 59.027344 59.773438 59.210938 L 59.726562 59.605469 C 59.707031 59.789062 59.835938 59.941406 60.019531 59.941406 L 60.65625 59.941406 L 60.585938 60.585938 C 60.5625 60.769531 60.695312 60.917969 60.878906 60.917969 L 61.265625 60.917969 C 61.449219 60.917969 61.613281 60.769531 61.632812 60.585938 L 61.707031 59.941406 L 62.34375 59.941406 C 62.523438 59.941406 62.6875 59.789062 62.710938 59.605469 L 62.753906 59.210938 C 62.773438 59.027344 62.644531 58.878906 62.460938 58.878906 "/><path style=" stroke:none;fill-rule:nonzero;fill:#99b9ff;fill-opacity:1;" d="M 75.496094 49.667969 L 57.191406 49.667969 C 56.757812 49.667969 56.445312 49.316406 56.496094 48.882812 L 58.566406 30.339844 C 58.617188 29.90625 59.003906 29.554688 59.4375 29.554688 L 77.746094 29.554688 C 78.175781 29.554688 78.488281 29.90625 78.441406 30.339844 L 76.367188 48.882812 C 76.320312 49.316406 75.929688 49.667969 75.496094 49.667969 "/><path style=" stroke:none;fill-rule:nonzero;fill:#ffffff;fill-opacity:1;" d="M 68.214844 33.421875 C 64.828125 33.421875 61.765625 36.207031 61.382812 39.632812 C 61.195312 41.300781 61.667969 42.863281 62.707031 44.03125 C 63.726562 45.175781 65.175781 45.804688 66.785156 45.804688 C 70.171875 45.804688 73.234375 43.015625 73.617188 39.589844 C 73.804688 37.921875 73.332031 36.363281 72.292969 35.195312 C 71.273438 34.050781 69.828125 33.421875 68.214844 33.421875 Z M 66.785156 46.195312 C 65.0625 46.195312 63.511719 45.519531 62.417969 44.289062 C 61.300781 43.039062 60.796875 41.371094 60.996094 39.589844 C 61.402344 35.972656 64.636719 33.03125 68.214844 33.03125 C 69.9375 33.03125 71.488281 33.707031 72.582031 34.933594 C 73.699219 36.1875 74.203125 37.855469 74.003906 39.632812 C 73.597656 43.25 70.363281 46.195312 66.785156 46.195312 "/><path style=" stroke:none;fill-rule:nonzero;fill:#ffffff;fill-opacity:1;" d="M 69.832031 38.570312 L 67.84375 37.09375 C 67.082031 36.53125 65.902344 37.128906 65.789062 38.136719 L 65.460938 41.089844 C 65.347656 42.097656 66.394531 42.695312 67.28125 42.128906 L 69.601562 40.652344 C 70.382812 40.15625 70.503906 39.070312 69.832031 38.570312 "/><path style=" stroke:none;fill-rule:nonzero;fill:#5479f7;fill-opacity:1;" d="M 48.542969 95.351562 L 30.234375 95.351562 C 29.804688 95.351562 29.492188 95 29.539062 94.566406 L 31.613281 76.023438 C 31.660156 75.589844 32.050781 75.238281 32.484375 75.238281 L 50.789062 75.238281 C 51.222656 75.238281 51.535156 75.589844 51.484375 76.023438 L 49.414062 94.566406 C 49.363281 95 48.976562 95.351562 48.542969 95.351562 "/><path style=" stroke:none;fill-rule:nonzero;fill:#ffffff;fill-opacity:1;" d="M 41.257812 79.101562 C 37.875 79.101562 34.8125 81.890625 34.429688 85.316406 C 34.242188 86.984375 34.710938 88.546875 35.753906 89.714844 C 36.769531 90.855469 38.21875 91.488281 39.832031 91.488281 C 43.214844 91.488281 46.28125 88.699219 46.664062 85.273438 C 46.847656 83.605469 46.378906 82.042969 45.339844 80.875 C 44.320312 79.734375 42.871094 79.101562 41.257812 79.101562 Z M 39.832031 91.875 C 38.105469 91.875 36.554688 91.199219 35.460938 89.972656 C 34.347656 88.722656 33.84375 87.050781 34.042969 85.273438 C 34.445312 81.65625 37.683594 78.714844 41.257812 78.714844 C 42.984375 78.714844 44.535156 79.390625 45.628906 80.617188 C 46.742188 81.867188 47.246094 83.539062 47.046875 85.316406 C 46.644531 88.933594 43.40625 91.875 39.832031 91.875 "/><path style=" stroke:none;fill-rule:nonzero;fill:#ffffff;fill-opacity:1;" d="M 41.511719 87.078125 C 41.40625 88.015625 40.570312 88.773438 39.644531 88.773438 C 38.71875 88.773438 38.050781 88.015625 38.15625 87.078125 C 38.261719 86.140625 39.097656 85.378906 40.023438 85.378906 C 40.949219 85.378906 41.613281 86.140625 41.511719 87.078125 "/><path style=" stroke:none;fill-rule:nonzero;fill:#ffffff;fill-opacity:1;" d="M 41.113281 87.273438 C 41.105469 87.273438 41.097656 87.273438 41.089844 87.269531 C 40.984375 87.257812 40.90625 87.164062 40.917969 87.054688 L 41.570312 81.214844 C 41.582031 81.140625 41.632812 81.074219 41.707031 81.054688 C 41.78125 81.03125 41.859375 81.050781 41.910156 81.109375 L 42.734375 82.050781 C 43.296875 82.691406 43.5625 83.578125 43.460938 84.480469 C 43.449219 84.589844 43.351562 84.664062 43.246094 84.652344 C 43.140625 84.640625 43.0625 84.546875 43.074219 84.4375 C 43.164062 83.632812 42.941406 82.875 42.445312 82.308594 L 41.910156 81.699219 L 41.304688 87.097656 C 41.292969 87.199219 41.210938 87.273438 41.113281 87.273438 "/><path style=" stroke:none;fill-rule:nonzero;fill:#99b9ff;fill-opacity:1;" d="M 70.222656 95.308594 L 51.917969 95.308594 C 51.484375 95.308594 51.171875 94.957031 51.222656 94.523438 L 53.292969 75.980469 C 53.339844 75.546875 53.730469 75.195312 54.164062 75.195312 L 72.46875 75.195312 C 72.902344 75.195312 73.214844 75.546875 73.164062 75.980469 L 71.09375 94.523438 C 71.042969 94.957031 70.65625 95.308594 70.222656 95.308594 "/><path style=" stroke:none;fill-rule:nonzero;fill:#ffffff;fill-opacity:1;" d="M 62.660156 88.199219 C 61.003906 88.644531 59.449219 87.6875 59.191406 86.058594 C 58.933594 84.433594 60.066406 82.75 61.726562 82.304688 C 63.382812 81.859375 64.9375 82.816406 65.195312 84.445312 C 65.453125 86.074219 64.316406 87.753906 62.660156 88.199219 Z M 67.671875 87.382812 L 68.097656 86.234375 L 67.027344 85.640625 C 67.082031 85.367188 67.109375 85.089844 67.113281 84.8125 L 68.3125 84.203125 L 68.132812 83.058594 L 66.847656 83.117188 C 66.757812 82.863281 66.644531 82.625 66.515625 82.402344 L 67.316406 81.304688 L 66.574219 80.46875 L 65.417969 81.167969 C 65.210938 81.011719 64.988281 80.875 64.753906 80.757812 L 64.945312 79.460938 L 63.84375 79.160156 L 63.128906 80.3125 C 62.859375 80.289062 62.585938 80.292969 62.308594 80.316406 L 61.835938 79.171875 L 60.671875 79.484375 L 60.582031 80.78125 C 60.320312 80.902344 60.070312 81.039062 59.832031 81.199219 L 58.824219 80.511719 L 57.90625 81.355469 L 58.472656 82.449219 C 58.292969 82.675781 58.132812 82.914062 57.988281 83.167969 L 56.714844 83.121094 L 56.289062 84.269531 L 57.359375 84.863281 C 57.304688 85.136719 57.277344 85.414062 57.269531 85.691406 L 56.074219 86.300781 L 56.253906 87.445312 L 57.539062 87.386719 C 57.628906 87.640625 57.742188 87.878906 57.871094 88.101562 L 57.070312 89.199219 L 57.8125 90.035156 L 58.96875 89.335938 C 59.175781 89.492188 59.398438 89.628906 59.628906 89.746094 L 59.441406 91.042969 L 60.542969 91.34375 L 61.257812 90.195312 C 61.527344 90.214844 61.796875 90.210938 62.074219 90.1875 L 62.550781 91.332031 L 63.714844 91.019531 L 63.800781 89.722656 C 64.0625 89.605469 64.316406 89.464844 64.554688 89.308594 L 65.5625 89.992188 L 66.480469 89.148438 L 65.914062 88.054688 C 66.09375 87.828125 66.253906 87.589844 66.398438 87.339844 L 67.671875 87.382812 "/><path style=" stroke:none;fill-rule:nonzero;fill:#000000;fill-opacity:1;" d="M 33.933594 61.25 C 33.933594 65.875 30.195312 69.625 25.585938 69.625 C 20.976562 69.625 17.242188 65.875 17.242188 61.25 C 17.242188 56.621094 20.976562 52.871094 25.585938 52.871094 C 30.195312 52.871094 33.933594 56.621094 33.933594 61.25 "/><path style=" stroke:none;fill-rule:nonzero;fill:#99b9ff;fill-opacity:1;" d="M 34.039062 61 C 34.039062 65.488281 30.414062 69.128906 25.945312 69.128906 C 21.472656 69.128906 17.847656 65.488281 17.847656 61 C 17.847656 56.511719 21.472656 52.871094 25.945312 52.871094 C 30.414062 52.871094 34.039062 56.511719 34.039062 61 "/><path style=" stroke:none;fill-rule:nonzero;fill:#000000;fill-opacity:1;" d="M 25.945312 53.066406 C 21.585938 53.066406 18.039062 56.625 18.039062 61 C 18.039062 65.375 21.585938 68.933594 25.945312 68.933594 C 30.300781 68.933594 33.847656 65.375 33.847656 61 C 33.847656 56.625 30.300781 53.066406 25.945312 53.066406 Z M 25.945312 69.324219 C 21.371094 69.324219 17.652344 65.589844 17.652344 61 C 17.652344 56.410156 21.371094 52.675781 25.945312 52.675781 C 30.515625 52.675781 34.234375 56.410156 34.234375 61 C 34.234375 65.589844 30.515625 69.324219 25.945312 69.324219 "/><path style=" stroke:none;fill-rule:nonzero;fill:#ffffff;fill-opacity:1;" d="M 32.738281 61 C 32.738281 64.765625 29.695312 67.820312 25.945312 67.820312 C 22.191406 67.820312 19.148438 64.765625 19.148438 61 C 19.148438 57.234375 22.191406 54.179688 25.945312 54.179688 C 29.695312 54.179688 32.738281 57.234375 32.738281 61 "/><path style=" stroke:none;fill-rule:nonzero;fill:#000000;fill-opacity:1;" d="M 31.65625 64.890625 C 31.621094 64.890625 31.582031 64.878906 31.550781 64.859375 C 31.460938 64.800781 31.433594 64.679688 31.492188 64.589844 C 31.835938 64.058594 32.101562 63.480469 32.277344 62.875 C 32.308594 62.769531 32.414062 62.710938 32.519531 62.742188 C 32.621094 62.773438 32.679688 62.878906 32.648438 62.984375 C 32.460938 63.625 32.183594 64.238281 31.820312 64.800781 C 31.78125 64.859375 31.71875 64.890625 31.65625 64.890625 "/><path style=" stroke:none;fill-rule:nonzero;fill:#000000;fill-opacity:1;" d="M 32.058594 58.21875 C 31.988281 58.21875 31.917969 58.179688 31.886719 58.109375 C 30.769531 55.804688 28.496094 54.375 25.945312 54.375 C 23.847656 54.375 21.855469 55.386719 20.617188 57.085938 C 20.554688 57.171875 20.433594 57.191406 20.34375 57.128906 C 20.257812 57.0625 20.242188 56.941406 20.304688 56.855469 C 21.617188 55.058594 23.726562 53.984375 25.945312 53.984375 C 28.601562 53.984375 31.074219 55.535156 32.234375 57.9375 C 32.28125 58.035156 32.242188 58.152344 32.144531 58.199219 C 32.117188 58.210938 32.089844 58.21875 32.058594 58.21875 "/><path style=" stroke:none;fill-rule:nonzero;fill:#000000;fill-opacity:1;" d="M 25.945312 68.015625 C 22.089844 68.015625 18.953125 64.867188 18.953125 61 C 18.953125 59.796875 19.261719 58.613281 19.84375 57.570312 C 19.898438 57.476562 20.015625 57.441406 20.109375 57.496094 C 20.203125 57.550781 20.234375 57.667969 20.183594 57.761719 C 19.632812 58.746094 19.34375 59.863281 19.34375 61 C 19.34375 64.652344 22.304688 67.625 25.945312 67.625 C 26.050781 67.625 26.136719 67.714844 26.136719 67.820312 C 26.136719 67.929688 26.050781 68.015625 25.945312 68.015625 "/><path style=" stroke:none;fill-rule:nonzero;fill:#5479f7;fill-opacity:1;" d="M 25.320312 65.816406 L 25.320312 64.695312 C 24.53125 64.660156 23.769531 64.445312 23.320312 64.1875 L 23.675781 62.804688 C 24.167969 63.078125 24.863281 63.324219 25.625 63.324219 C 26.296875 63.324219 26.753906 63.066406 26.753906 62.59375 C 26.753906 62.144531 26.378906 61.859375 25.507812 61.566406 C 24.25 61.140625 23.390625 60.550781 23.390625 59.40625 C 23.390625 58.367188 24.121094 57.554688 25.378906 57.304688 L 25.378906 56.183594 L 26.53125 56.183594 L 26.53125 57.222656 C 27.320312 57.257812 27.847656 57.421875 28.238281 57.613281 L 27.894531 58.945312 C 27.589844 58.816406 27.050781 58.542969 26.203125 58.542969 C 25.4375 58.542969 25.191406 58.875 25.191406 59.207031 C 25.191406 59.59375 25.601562 59.84375 26.601562 60.21875 C 28 60.714844 28.566406 61.367188 28.566406 62.429688 C 28.566406 63.480469 27.824219 64.375 26.472656 64.613281 L 26.472656 65.816406 L 25.320312 65.816406 "/><path style=" stroke:none;fill-rule:nonzero;fill:#000000;fill-opacity:1;" d="M 30.097656 40.898438 C 30.097656 46.4375 25.625 50.929688 20.105469 50.929688 C 14.585938 50.929688 10.113281 46.4375 10.113281 40.898438 C 10.113281 35.359375 14.585938 30.867188 20.105469 30.867188 C 25.625 30.867188 30.097656 35.359375 30.097656 40.898438 "/><path style=" stroke:none;fill-rule:nonzero;fill:#99b9ff;fill-opacity:1;" d="M 30.226562 40.601562 C 30.226562 45.976562 25.886719 50.335938 20.53125 50.335938 C 15.175781 50.335938 10.835938 45.976562 10.835938 40.601562 C 10.835938 35.226562 15.175781 30.867188 20.53125 30.867188 C 25.886719 30.867188 30.226562 35.226562 30.226562 40.601562 "/><path style=" stroke:none;fill-rule:nonzero;fill:#000000;fill-opacity:1;" d="M 20.53125 31.0625 C 15.292969 31.0625 11.03125 35.339844 11.03125 40.601562 C 11.03125 45.859375 15.292969 50.140625 20.53125 50.140625 C 25.769531 50.140625 30.035156 45.859375 30.035156 40.601562 C 30.035156 35.339844 25.769531 31.0625 20.53125 31.0625 Z M 20.53125 50.527344 C 15.078125 50.527344 10.640625 46.074219 10.640625 40.601562 C 10.640625 35.125 15.078125 30.671875 20.53125 30.671875 C 25.984375 30.671875 30.421875 35.125 30.421875 40.601562 C 30.421875 46.074219 25.984375 50.527344 20.53125 50.527344 "/><path style=" stroke:none;fill-rule:nonzero;fill:#ffffff;fill-opacity:1;" d="M 28.667969 40.601562 C 28.667969 45.113281 25.027344 48.769531 20.53125 48.769531 C 16.039062 48.769531 12.394531 45.113281 12.394531 40.601562 C 12.394531 36.089844 16.039062 32.433594 20.53125 32.433594 C 25.027344 32.433594 28.667969 36.089844 28.667969 40.601562 "/><path style=" stroke:none;fill-rule:nonzero;fill:#000000;fill-opacity:1;" d="M 27.371094 45.21875 C 27.335938 45.21875 27.300781 45.210938 27.265625 45.1875 C 27.175781 45.132812 27.152344 45.011719 27.210938 44.921875 C 27.621094 44.28125 27.9375 43.585938 28.152344 42.855469 C 28.183594 42.753906 28.289062 42.695312 28.394531 42.722656 C 28.496094 42.753906 28.554688 42.863281 28.523438 42.964844 C 28.300781 43.730469 27.96875 44.460938 27.535156 45.132812 C 27.5 45.1875 27.4375 45.21875 27.371094 45.21875 "/><path style=" stroke:none;fill-rule:nonzero;fill:#000000;fill-opacity:1;" d="M 27.855469 37.234375 C 27.785156 37.234375 27.714844 37.191406 27.679688 37.125 C 26.339844 34.351562 23.601562 32.628906 20.53125 32.628906 C 18.011719 32.628906 15.613281 33.847656 14.121094 35.890625 C 14.058594 35.976562 13.9375 35.996094 13.851562 35.933594 C 13.765625 35.871094 13.746094 35.75 13.808594 35.660156 C 15.375 33.519531 17.886719 32.238281 20.53125 32.238281 C 23.703125 32.238281 26.644531 34.089844 28.03125 36.953125 C 28.078125 37.050781 28.035156 37.167969 27.941406 37.214844 C 27.914062 37.226562 27.882812 37.234375 27.855469 37.234375 "/><path style=" stroke:none;fill-rule:nonzero;fill:#000000;fill-opacity:1;" d="M 20.53125 48.964844 C 15.9375 48.964844 12.199219 45.210938 12.199219 40.601562 C 12.199219 39.167969 12.566406 37.753906 13.261719 36.511719 C 13.3125 36.417969 13.433594 36.386719 13.527344 36.4375 C 13.621094 36.492188 13.652344 36.609375 13.601562 36.703125 C 12.9375 37.886719 12.589844 39.234375 12.589844 40.601562 C 12.589844 44.996094 16.152344 48.574219 20.53125 48.574219 C 20.640625 48.574219 20.726562 48.660156 20.726562 48.769531 C 20.726562 48.875 20.640625 48.964844 20.53125 48.964844 "/><path style=" stroke:none;fill-rule:nonzero;fill:#5479f7;fill-opacity:1;" d="M 19.785156 46.367188 L 19.785156 45.023438 C 18.84375 44.984375 17.925781 44.726562 17.390625 44.417969 L 17.8125 42.761719 C 18.40625 43.089844 19.238281 43.386719 20.152344 43.386719 C 20.953125 43.386719 21.503906 43.074219 21.503906 42.507812 C 21.503906 41.972656 21.050781 41.632812 20.011719 41.277344 C 18.503906 40.769531 17.476562 40.0625 17.476562 38.691406 C 17.476562 37.449219 18.347656 36.472656 19.855469 36.175781 L 19.855469 34.835938 L 21.234375 34.835938 L 21.234375 36.078125 C 22.179688 36.121094 22.8125 36.316406 23.277344 36.542969 L 22.867188 38.140625 C 22.503906 37.984375 21.855469 37.660156 20.839844 37.660156 C 19.925781 37.660156 19.628906 38.054688 19.628906 38.453125 C 19.628906 38.917969 20.125 39.214844 21.320312 39.667969 C 22.996094 40.261719 23.671875 41.039062 23.671875 42.3125 C 23.671875 43.570312 22.785156 44.644531 21.164062 44.925781 L 21.164062 46.367188 L 19.785156 46.367188 "/><path style=" stroke:none;fill-rule:nonzero;fill:#000000;fill-opacity:1;" d="M 29.136719 15.226562 C 29.136719 22.257812 23.460938 27.957031 16.457031 27.957031 C 9.453125 27.957031 3.773438 22.257812 3.773438 15.226562 C 3.773438 8.195312 9.453125 2.496094 16.457031 2.496094 C 23.460938 2.496094 29.136719 8.195312 29.136719 15.226562 "/><path style=" stroke:none;fill-rule:nonzero;fill:#99b9ff;fill-opacity:1;" d="M 29.304688 14.847656 C 29.304688 21.671875 23.792969 27.203125 16.996094 27.203125 C 10.203125 27.203125 4.691406 21.671875 4.691406 14.847656 C 4.691406 8.027344 10.203125 2.496094 16.996094 2.496094 C 23.792969 2.496094 29.304688 8.027344 29.304688 14.847656 "/><path style=" stroke:none;fill-rule:nonzero;fill:#000000;fill-opacity:1;" d="M 16.996094 2.691406 C 10.320312 2.691406 4.886719 8.144531 4.886719 14.847656 C 4.886719 21.550781 10.320312 27.007812 16.996094 27.007812 C 23.675781 27.007812 29.109375 21.550781 29.109375 14.847656 C 29.109375 8.144531 23.675781 2.691406 16.996094 2.691406 Z M 16.996094 27.394531 C 10.105469 27.394531 4.5 21.765625 4.5 14.847656 C 4.5 7.929688 10.105469 2.300781 16.996094 2.300781 C 23.890625 2.300781 29.496094 7.929688 29.496094 14.847656 C 29.496094 21.765625 23.890625 27.394531 16.996094 27.394531 "/><path style=" stroke:none;fill-rule:nonzero;fill:#ffffff;fill-opacity:1;" d="M 27.324219 14.847656 C 27.324219 20.574219 22.699219 25.214844 16.996094 25.214844 C 11.292969 25.214844 6.671875 20.574219 6.671875 14.847656 C 6.671875 9.125 11.292969 4.480469 16.996094 4.480469 C 22.699219 4.480469 27.324219 9.125 27.324219 14.847656 "/><path style=" stroke:none;fill-rule:nonzero;fill:#000000;fill-opacity:1;" d="M 25.679688 20.660156 C 25.644531 20.660156 25.605469 20.648438 25.574219 20.628906 C 25.484375 20.570312 25.457031 20.449219 25.515625 20.359375 C 26.042969 19.539062 26.445312 18.65625 26.71875 17.722656 C 26.75 17.621094 26.859375 17.5625 26.960938 17.59375 C 27.0625 17.625 27.121094 17.730469 27.09375 17.835938 C 26.808594 18.800781 26.386719 19.722656 25.84375 20.570312 C 25.804688 20.628906 25.742188 20.660156 25.679688 20.660156 "/><path style=" stroke:none;fill-rule:nonzero;fill:#000000;fill-opacity:1;" d="M 26.292969 10.523438 C 26.222656 10.523438 26.152344 10.480469 26.117188 10.410156 C 24.40625 6.875 20.914062 4.675781 16.996094 4.675781 C 13.78125 4.675781 10.726562 6.234375 8.820312 8.839844 C 8.757812 8.925781 8.636719 8.945312 8.550781 8.882812 C 8.460938 8.820312 8.445312 8.695312 8.507812 8.609375 C 10.484375 5.902344 13.660156 4.289062 16.996094 4.289062 C 21 4.289062 24.71875 6.625 26.46875 10.242188 C 26.515625 10.339844 26.472656 10.457031 26.378906 10.503906 C 26.351562 10.515625 26.320312 10.523438 26.292969 10.523438 "/><path style=" stroke:none;fill-rule:nonzero;fill:#000000;fill-opacity:1;" d="M 16.996094 25.410156 C 11.195312 25.410156 6.476562 20.671875 6.476562 14.847656 C 6.476562 13.039062 6.941406 11.253906 7.816406 9.6875 C 7.871094 9.59375 7.988281 9.558594 8.082031 9.613281 C 8.175781 9.664062 8.207031 9.785156 8.15625 9.878906 C 7.3125 11.386719 6.863281 13.105469 6.863281 14.847656 C 6.863281 20.457031 11.410156 25.019531 16.996094 25.019531 C 17.105469 25.019531 17.191406 25.109375 17.191406 25.214844 C 17.191406 25.324219 17.105469 25.410156 16.996094 25.410156 "/><path style=" stroke:none;fill-rule:nonzero;fill:#5479f7;fill-opacity:1;" d="M 16.050781 22.167969 L 16.050781 20.464844 C 14.851562 20.410156 13.691406 20.085938 13.011719 19.691406 L 13.546875 17.59375 C 14.300781 18.007812 15.355469 18.382812 16.515625 18.382812 C 17.535156 18.382812 18.230469 17.988281 18.230469 17.269531 C 18.230469 16.589844 17.660156 16.15625 16.335938 15.710938 C 14.425781 15.0625 13.121094 14.167969 13.121094 12.425781 C 13.121094 10.847656 14.226562 9.609375 16.140625 9.234375 L 16.140625 7.53125 L 17.890625 7.53125 L 17.890625 9.109375 C 19.089844 9.160156 19.894531 9.414062 20.480469 9.699219 L 19.964844 11.726562 C 19.5 11.53125 18.675781 11.117188 17.390625 11.117188 C 16.230469 11.117188 15.855469 11.621094 15.855469 12.121094 C 15.855469 12.714844 16.480469 13.089844 18 13.664062 C 20.125 14.417969 20.984375 15.40625 20.984375 17.019531 C 20.984375 18.617188 19.855469 19.980469 17.800781 20.339844 L 17.800781 22.167969 L 16.050781 22.167969 "/><path style=" stroke:none;fill-rule:nonzero;fill:#ffffff;fill-opacity:1;" d="M 91.980469 100.316406 L 93.109375 107.730469 L 95.835938 106.339844 L 95.058594 98.941406 L 91.980469 100.316406 "/><path style=" stroke:none;fill-rule:nonzero;fill:#000000;fill-opacity:1;" d="M 92.195312 100.433594 L 93.261719 107.433594 L 95.628906 106.226562 L 94.890625 99.226562 Z M 93.109375 107.925781 C 93.078125 107.925781 93.046875 107.917969 93.019531 107.902344 C 92.964844 107.875 92.925781 107.820312 92.917969 107.757812 L 91.789062 100.34375 C 91.777344 100.257812 91.824219 100.171875 91.902344 100.136719 L 94.976562 98.761719 C 95.035156 98.738281 95.101562 98.738281 95.152344 98.769531 C 95.207031 98.800781 95.242188 98.859375 95.25 98.917969 L 96.027344 106.316406 C 96.039062 106.398438 95.996094 106.476562 95.925781 106.511719 L 93.199219 107.902344 C 93.167969 107.917969 93.140625 107.925781 93.109375 107.925781 "/><path style=" stroke:none;fill-rule:nonzero;fill:#5479f7;fill-opacity:1;" d="M 92.40625 104.925781 C 92.09375 105.640625 91.800781 106.992188 91.5 108.753906 C 91.359375 109.589844 92.011719 110.347656 92.867188 110.347656 L 102.894531 110.347656 C 103.585938 110.347656 103.914062 109.503906 103.398438 109.046875 C 101.402344 107.277344 98.34375 105.3125 95.707031 104.160156 L 94.699219 105.585938 C 94.699219 105.585938 92.492188 104.726562 92.40625 104.925781 "/><path style=" stroke:none;fill-rule:nonzero;fill:#000000;fill-opacity:1;" d="M 92.40625 104.925781 L 92.410156 104.925781 Z M 92.546875 105.089844 C 92.28125 105.753906 92.007812 106.933594 91.691406 108.785156 C 91.632812 109.121094 91.730469 109.464844 91.949219 109.730469 C 92.175781 110 92.511719 110.152344 92.867188 110.152344 L 102.894531 110.152344 C 103.183594 110.152344 103.355469 109.96875 103.421875 109.796875 C 103.484375 109.625 103.476562 109.378906 103.269531 109.191406 C 101.296875 107.441406 98.304688 105.53125 95.773438 104.402344 L 94.855469 105.699219 C 94.804688 105.773438 94.710938 105.800781 94.628906 105.769531 C 93.816406 105.449219 92.84375 105.121094 92.546875 105.089844 Z M 102.894531 110.542969 L 92.867188 110.542969 C 92.394531 110.542969 91.953125 110.339844 91.652344 109.980469 C 91.359375 109.628906 91.234375 109.171875 91.308594 108.71875 C 91.644531 106.75 91.9375 105.519531 92.230469 104.847656 C 92.300781 104.683594 92.386719 104.484375 94.628906 105.351562 L 95.546875 104.046875 C 95.601562 103.972656 95.699219 103.945312 95.785156 103.980469 C 98.378906 105.113281 101.488281 107.09375 103.527344 108.902344 C 103.824219 109.167969 103.921875 109.5625 103.78125 109.933594 C 103.644531 110.304688 103.296875 110.542969 102.894531 110.542969 "/><path style=" stroke:none;fill-rule:nonzero;fill:#000000;fill-opacity:1;" d="M 102.710938 109.679688 L 92.144531 109.679688 C 92.035156 109.679688 91.949219 109.59375 91.949219 109.484375 C 91.949219 109.378906 92.035156 109.289062 92.144531 109.289062 L 102.710938 109.289062 C 102.816406 109.289062 102.902344 109.378906 102.902344 109.484375 C 102.902344 109.59375 102.816406 109.679688 102.710938 109.679688 "/><path style=" stroke:none;fill-rule:nonzero;fill:#000000;fill-opacity:1;" d="M 96.949219 107.546875 C 96.914062 107.546875 96.878906 107.539062 96.851562 107.523438 C 96.757812 107.46875 96.726562 107.347656 96.78125 107.253906 L 97.8125 105.503906 C 97.867188 105.410156 97.984375 105.378906 98.078125 105.433594 C 98.167969 105.488281 98.199219 105.609375 98.144531 105.699219 L 97.117188 107.453125 C 97.078125 107.515625 97.015625 107.546875 96.949219 107.546875 "/><path style=" stroke:none;fill-rule:nonzero;fill:#000000;fill-opacity:1;" d="M 98.457031 107.804688 C 98.425781 107.804688 98.390625 107.796875 98.363281 107.777344 C 98.269531 107.726562 98.234375 107.609375 98.289062 107.515625 L 98.953125 106.3125 C 99.007812 106.21875 99.125 106.1875 99.21875 106.238281 C 99.3125 106.292969 99.347656 106.410156 99.292969 106.503906 L 98.628906 107.703125 C 98.589844 107.769531 98.523438 107.804688 98.457031 107.804688 "/><path style=" stroke:none;fill-rule:nonzero;fill:#000000;fill-opacity:1;" d="M 98.734375 52.558594 C 98.734375 52.558594 106.335938 64.113281 108.929688 71.453125 C 109.421875 72.847656 109.042969 74.402344 107.960938 75.410156 C 104.941406 78.214844 98.488281 84.148438 94.347656 87.460938 L 93.109375 84.304688 C 93.109375 84.304688 94.605469 77 100.214844 73.710938 L 93.253906 63.292969 L 91.71875 55.183594 L 98.734375 52.558594 "/><path style=" stroke:none;fill-rule:nonzero;fill:#000000;fill-opacity:1;" d="M 85.558594 55.6875 C 85.558594 55.6875 87.808594 72.957031 88.15625 77.367188 C 88.5 81.78125 88.183594 86.6875 88.011719 90.289062 C 87.839844 93.890625 91.910156 102.261719 91.910156 102.261719 L 95.835938 101.566406 L 96.5625 61 L 97.621094 53.492188 L 85.558594 55.6875 "/><path style=" stroke:none;fill-rule:nonzero;fill:#ffffff;fill-opacity:1;" d="M 96.101562 86.90625 C 95.996094 86.90625 95.90625 86.820312 95.90625 86.710938 L 95.929688 80.460938 C 95.929688 80.355469 96.015625 80.269531 96.121094 80.269531 C 96.121094 80.269531 96.121094 80.269531 96.125 80.269531 C 96.230469 80.269531 96.316406 80.355469 96.316406 80.464844 L 96.296875 86.710938 C 96.296875 86.820312 96.207031 86.90625 96.101562 86.90625 "/><path style=" stroke:none;fill-rule:nonzero;fill:#ffffff;fill-opacity:1;" d="M 96.507812 67.597656 C 96.398438 67.597656 96.3125 67.511719 96.3125 67.402344 L 96.3125 64.179688 C 96.3125 64.113281 96.34375 64.050781 96.398438 64.015625 L 98.292969 62.753906 C 98.378906 62.695312 98.5 62.71875 98.5625 62.808594 C 98.621094 62.898438 98.597656 63.019531 98.507812 63.078125 L 96.699219 64.28125 L 96.699219 67.402344 C 96.699219 67.511719 96.613281 67.597656 96.507812 67.597656 "/><path style=" stroke:none;fill-rule:nonzero;fill:#ffffff;fill-opacity:1;" d="M 87.113281 64.984375 C 87.058594 64.984375 87.003906 64.960938 86.964844 64.917969 C 86.894531 64.835938 86.90625 64.710938 86.988281 64.640625 C 87.019531 64.617188 89.050781 62.835938 89.734375 58.484375 C 89.753906 58.378906 89.851562 58.304688 89.957031 58.324219 C 90.0625 58.339844 90.136719 58.441406 90.117188 58.546875 C 89.410156 63.0625 87.328125 64.867188 87.238281 64.941406 C 87.203125 64.972656 87.160156 64.984375 87.113281 64.984375 "/><path style=" stroke:none;fill-rule:nonzero;fill:#5479f7;fill-opacity:1;" d="M 93.648438 37.601562 C 93.648438 37.601562 95.410156 38.6875 96.863281 40.75 C 98.316406 42.808594 99.195312 44.644531 100.890625 44.949219 C 103.285156 45.382812 105.855469 41.261719 105.855469 41.261719 L 107.40625 42.316406 C 107.40625 42.316406 106.492188 50.933594 101.492188 52.1875 C 97.816406 53.109375 92.421875 48.226562 92.421875 48.226562 L 93.648438 37.601562 "/><path style=" stroke:none;fill-rule:nonzero;fill:#ffffff;fill-opacity:1;" d="M 105.855469 41.261719 C 105.855469 41.261719 106.570312 40.652344 107.140625 40.34375 C 107.707031 40.035156 109.46875 37.394531 109.46875 37.394531 C 109.46875 37.394531 109.417969 41.554688 107.597656 42.191406 L 105.855469 41.261719 "/><path style=" stroke:none;fill-rule:nonzero;fill:#000000;fill-opacity:1;" d="M 106.203125 41.226562 L 107.609375 41.976562 C 108.789062 41.476562 109.132812 39.238281 109.234375 38.082031 C 108.667969 38.898438 107.667969 40.277344 107.230469 40.515625 C 106.875 40.707031 106.457031 41.027344 106.203125 41.226562 Z M 107.597656 42.386719 C 107.566406 42.386719 107.535156 42.378906 107.507812 42.363281 L 105.765625 41.433594 C 105.707031 41.402344 105.667969 41.347656 105.660156 41.28125 C 105.65625 41.21875 105.679688 41.15625 105.730469 41.113281 C 105.757812 41.089844 106.46875 40.488281 107.046875 40.171875 C 107.429688 39.964844 108.636719 38.292969 109.308594 37.289062 C 109.355469 37.214844 109.441406 37.183594 109.527344 37.210938 C 109.609375 37.234375 109.664062 37.3125 109.660156 37.398438 C 109.660156 37.574219 109.585938 41.703125 107.664062 42.375 C 107.640625 42.382812 107.621094 42.386719 107.597656 42.386719 "/><path style=" stroke:none;fill-rule:nonzero;fill:#000000;fill-opacity:1;" d="M 104.082031 41.78125 L 106.144531 41.78125 L 110.054688 36.105469 L 108.042969 36.105469 L 104.082031 41.78125 "/><path style=" stroke:none;fill-rule:nonzero;fill:#000000;fill-opacity:1;" d="M 104.457031 41.585938 L 106.042969 41.585938 L 109.683594 36.300781 L 108.144531 36.300781 Z M 106.144531 41.972656 L 104.082031 41.972656 C 104.011719 41.972656 103.945312 41.933594 103.910156 41.871094 C 103.875 41.804688 103.882812 41.726562 103.925781 41.667969 L 107.882812 35.996094 C 107.921875 35.941406 107.980469 35.910156 108.042969 35.910156 L 110.054688 35.910156 C 110.128906 35.910156 110.195312 35.953125 110.226562 36.015625 C 110.261719 36.078125 110.253906 36.15625 110.214844 36.214844 L 106.304688 41.890625 C 106.269531 41.941406 106.210938 41.972656 106.144531 41.972656 "/><path style=" stroke:none;fill-rule:nonzero;fill:#ffffff;fill-opacity:1;" d="M 104.535156 41.78125 L 106.597656 41.78125 L 110.507812 36.105469 L 108.496094 36.105469 L 104.535156 41.78125 "/><path style=" stroke:none;fill-rule:nonzero;fill:#000000;fill-opacity:1;" d="M 104.90625 41.585938 L 106.496094 41.585938 L 110.136719 36.300781 L 108.59375 36.300781 Z M 106.597656 41.976562 L 104.535156 41.976562 C 104.460938 41.976562 104.394531 41.933594 104.359375 41.871094 C 104.328125 41.804688 104.332031 41.726562 104.375 41.667969 L 108.335938 35.996094 C 108.371094 35.941406 108.429688 35.910156 108.492188 35.910156 L 110.507812 35.910156 C 110.578125 35.910156 110.644531 35.953125 110.679688 36.015625 C 110.710938 36.082031 110.707031 36.15625 110.664062 36.21875 L 106.757812 41.890625 C 106.71875 41.941406 106.660156 41.976562 106.597656 41.976562 "/><path style=" stroke:none;fill-rule:nonzero;fill:#5479f7;fill-opacity:1;" d="M 84.816406 56.023438 C 84.90625 56.664062 85.421875 57.160156 86.066406 57.222656 C 86.789062 57.289062 87.886719 57.28125 89.414062 56.996094 C 92.550781 56.410156 95.648438 54.425781 97.644531 54.195312 C 99.640625 53.96875 99.382812 52.277344 98.921875 50.425781 C 98.460938 48.574219 93.648438 37.601562 93.648438 37.601562 C 93.648438 37.601562 90.5 36.53125 86.652344 36.699219 C 82.871094 36.863281 79.546875 39.242188 78.222656 42.804688 C 77.195312 45.570312 76.445312 49.617188 77.101562 55.191406 C 78.355469 65.824219 87.214844 64.441406 87.214844 64.441406 L 88.648438 62.171875 C 88.648438 62.171875 84.6875 61.90625 83.761719 56.429688 C 83.421875 54.429688 84.1875 51.449219 84.1875 51.449219 L 84.816406 56.023438 "/><path style=" stroke:none;fill-rule:nonzero;fill:#000000;fill-opacity:1;" d="M 84.507812 51.085938 C 84.488281 51.085938 84.46875 51.082031 84.449219 51.074219 C 84.347656 51.042969 84.289062 50.933594 84.324219 50.832031 L 85.894531 45.847656 C 85.925781 45.746094 86.035156 45.6875 86.136719 45.71875 C 86.242188 45.753906 86.296875 45.863281 86.265625 45.964844 L 84.691406 50.949219 C 84.667969 51.03125 84.589844 51.085938 84.507812 51.085938 "/><path style=" stroke:none;fill-rule:nonzero;fill:#000000;fill-opacity:1;" d="M 99.175781 51.128906 C 99.078125 51.128906 98.992188 51.054688 98.980469 50.953125 C 98.726562 48.304688 95.972656 42.179688 95.945312 42.117188 C 95.902344 42.019531 95.945312 41.90625 96.042969 41.859375 C 96.140625 41.816406 96.253906 41.859375 96.300781 41.957031 C 96.414062 42.210938 99.105469 48.203125 99.367188 50.917969 C 99.378906 51.023438 99.300781 51.117188 99.195312 51.128906 C 99.1875 51.128906 99.179688 51.128906 99.175781 51.128906 "/><path style=" stroke:none;fill-rule:nonzero;fill:#ffffff;fill-opacity:1;" d="M 89.210938 31.585938 L 85.6875 36.878906 C 85.6875 36.878906 88.636719 38.152344 90.441406 38.425781 C 92.246094 38.703125 90.042969 36.785156 90.042969 36.785156 L 91.46875 33.527344 L 89.210938 31.585938 "/><path style=" stroke:none;fill-rule:nonzero;fill:#000000;fill-opacity:1;" d="M 85.980469 36.792969 C 86.6875 37.085938 88.988281 38.007812 90.46875 38.234375 C 90.875 38.296875 90.957031 38.222656 90.957031 38.222656 C 91.007812 38.070312 90.503906 37.441406 89.914062 36.933594 C 89.851562 36.875 89.832031 36.785156 89.863281 36.707031 L 91.234375 33.582031 L 89.25 31.878906 Z M 90.75 38.648438 C 90.636719 38.648438 90.515625 38.636719 90.414062 38.621094 C 88.601562 38.34375 85.730469 37.109375 85.609375 37.058594 C 85.558594 37.035156 85.519531 36.992188 85.5 36.933594 C 85.484375 36.878906 85.492188 36.820312 85.527344 36.769531 L 89.050781 31.480469 C 89.082031 31.433594 89.128906 31.402344 89.183594 31.394531 C 89.238281 31.386719 89.296875 31.402344 89.335938 31.4375 L 91.59375 33.378906 C 91.660156 33.433594 91.679688 33.527344 91.644531 33.605469 L 90.277344 36.730469 C 90.730469 37.140625 91.515625 37.9375 91.308594 38.386719 C 91.214844 38.59375 90.988281 38.648438 90.75 38.648438 "/><path style=" stroke:none;fill-rule:nonzero;fill:#000000;fill-opacity:1;" d="M 96.027344 29.066406 C 95.046875 28.195312 93.824219 29.023438 92.679688 27.957031 C 92.15625 27.46875 92.125 27.023438 91.484375 26.746094 C 91.058594 26.558594 90.300781 26.414062 89.777344 26.785156 C 89.109375 27.257812 89.558594 28.050781 88.96875 29.765625 C 88.554688 30.972656 88.023438 31.484375 88.296875 31.921875 C 88.570312 32.367188 89.257812 32.074219 89.59375 32.535156 C 90.03125 33.132812 89.164062 34.011719 89.394531 34.839844 C 89.539062 35.363281 90.246094 36.109375 92.007812 36.496094 C 92.292969 36.5625 92.582031 36.410156 92.695312 36.140625 C 92.84375 35.792969 93.023438 35.351562 93.160156 34.917969 C 93.816406 32.847656 93.527344 32.035156 94.0625 31.785156 C 94.875 31.398438 95.792969 32.714844 96.398438 32.351562 C 97.03125 31.972656 97.035156 29.960938 96.027344 29.066406 "/><path style=" stroke:none;fill-rule:nonzero;fill:#ffffff;fill-opacity:1;" d="M 91.800781 29.933594 L 92.164062 30.078125 C 92.164062 30.078125 91.125 32.460938 90.960938 33.1875 C 90.792969 33.910156 92.988281 34.601562 92.988281 34.601562 L 93.347656 34.351562 L 93.613281 34.429688 C 93.699219 34.457031 93.789062 34.441406 93.859375 34.390625 C 93.929688 34.339844 93.972656 34.261719 93.980469 34.175781 C 94.027344 33.507812 94.175781 32.054688 94.640625 31.007812 C 94.640625 31.007812 93.636719 29.691406 91.800781 29.933594 "/><path style=" stroke:none;fill-rule:nonzero;fill:#000000;fill-opacity:1;" d="M 91.609375 29.910156 C 91.644531 29.875 91.699219 29.808594 91.785156 29.769531 C 91.824219 29.75 91.867188 29.734375 91.90625 29.730469 C 91.921875 29.726562 91.945312 29.722656 91.957031 29.722656 L 91.984375 29.71875 C 92.050781 29.714844 92.121094 29.707031 92.191406 29.710938 C 92.332031 29.703125 92.472656 29.710938 92.613281 29.722656 C 92.890625 29.753906 93.164062 29.816406 93.429688 29.917969 C 93.691406 30.015625 93.9375 30.152344 94.167969 30.3125 C 94.28125 30.394531 94.390625 30.480469 94.496094 30.574219 C 94.601562 30.671875 94.695312 30.765625 94.792969 30.886719 C 94.835938 30.945312 94.84375 31.023438 94.816406 31.085938 C 94.679688 31.378906 94.578125 31.691406 94.488281 32.007812 C 94.398438 32.324219 94.328125 32.648438 94.269531 32.976562 C 94.210938 33.304688 94.164062 33.636719 94.136719 33.96875 L 94.125 34.09375 L 94.117188 34.15625 L 94.117188 34.1875 C 94.113281 34.203125 94.113281 34.21875 94.109375 34.234375 C 94.085938 34.359375 94.007812 34.46875 93.898438 34.527344 C 93.84375 34.558594 93.785156 34.578125 93.722656 34.585938 C 93.691406 34.589844 93.65625 34.589844 93.625 34.589844 C 93.609375 34.585938 93.59375 34.585938 93.578125 34.582031 L 93.542969 34.578125 C 93.460938 34.566406 93.375 34.554688 93.292969 34.539062 L 93.453125 34.511719 C 93.339844 34.601562 93.21875 34.679688 93.101562 34.761719 C 93.050781 34.800781 92.984375 34.804688 92.929688 34.789062 C 92.445312 34.628906 91.980469 34.445312 91.527344 34.191406 C 91.300781 34.054688 91.078125 33.917969 90.886719 33.671875 C 90.84375 33.609375 90.800781 33.535156 90.769531 33.449219 C 90.742188 33.363281 90.730469 33.261719 90.75 33.164062 C 90.785156 33.015625 90.820312 32.902344 90.859375 32.777344 C 91.023438 32.296875 91.207031 31.835938 91.394531 31.375 C 91.582031 30.914062 91.78125 30.457031 91.980469 30 L 92.089844 30.265625 C 92 30.230469 91.898438 30.179688 91.8125 30.109375 C 91.726562 30.039062 91.664062 29.964844 91.609375 29.910156 Z M 91.992188 29.960938 C 92.058594 29.953125 92.117188 29.929688 92.152344 29.90625 C 92.1875 29.886719 92.203125 29.882812 92.238281 29.894531 C 92.335938 29.933594 92.386719 30.050781 92.347656 30.152344 L 92.347656 30.15625 L 92.34375 30.160156 C 92.152344 30.613281 91.964844 31.074219 91.777344 31.53125 C 91.59375 31.988281 91.410156 32.449219 91.257812 32.910156 C 91.21875 33.019531 91.183594 33.144531 91.160156 33.238281 C 91.152344 33.285156 91.167969 33.347656 91.222656 33.425781 C 91.335938 33.578125 91.53125 33.71875 91.730469 33.835938 C 92.136719 34.074219 92.59375 34.261719 93.046875 34.414062 L 92.878906 34.4375 C 93 34.359375 93.117188 34.273438 93.238281 34.195312 L 93.257812 34.183594 C 93.300781 34.15625 93.355469 34.15625 93.398438 34.171875 C 93.480469 34.199219 93.554688 34.238281 93.632812 34.269531 L 93.660156 34.285156 C 93.664062 34.285156 93.667969 34.289062 93.671875 34.289062 C 93.683594 34.292969 93.691406 34.296875 93.703125 34.300781 C 93.722656 34.300781 93.746094 34.296875 93.765625 34.289062 C 93.804688 34.269531 93.832031 34.226562 93.839844 34.183594 L 93.859375 33.945312 C 93.886719 33.605469 93.921875 33.269531 93.964844 32.929688 C 94.058594 32.253906 94.191406 31.578125 94.460938 30.929688 L 94.484375 31.125 C 94.417969 31.042969 94.324219 30.949219 94.234375 30.867188 C 94.140625 30.785156 94.042969 30.710938 93.941406 30.640625 C 93.738281 30.5 93.515625 30.382812 93.285156 30.296875 C 93.054688 30.207031 92.8125 30.152344 92.570312 30.125 C 92.445312 30.113281 92.324219 30.101562 92.199219 30.105469 C 92.136719 30.105469 92.074219 30.109375 92.011719 30.113281 L 91.988281 30.113281 C 91.984375 30.113281 91.992188 30.113281 91.992188 30.109375 C 91.996094 30.109375 92.007812 30.097656 92.015625 30.082031 C 92.035156 30.050781 92.023438 29.992188 91.992188 29.960938 "/><path style=" stroke:none;fill-rule:nonzero;fill:#ffffff;fill-opacity:1;" d="M 90.988281 31.617188 C 90.988281 31.617188 91.234375 30.210938 90.574219 30.234375 C 89.914062 30.253906 89.683594 31.808594 90.988281 31.617188 "/><path style=" stroke:none;fill-rule:nonzero;fill:#000000;fill-opacity:1;" d="M 61.722656 6.707031 C 61.703125 6.707031 61.683594 6.707031 61.664062 6.699219 C 56.953125 5.214844 51.988281 4.59375 46.90625 4.851562 C 46.800781 4.859375 46.710938 4.773438 46.703125 4.667969 C 46.699219 4.558594 46.78125 4.46875 46.886719 4.464844 C 52.015625 4.203125 57.023438 4.832031 61.777344 6.328125 C 61.878906 6.359375 61.9375 6.46875 61.90625 6.570312 C 61.878906 6.65625 61.804688 6.707031 61.722656 6.707031 "/><path style=" stroke:none;fill-rule:nonzero;fill:#000000;fill-opacity:1;" d="M 42.542969 5.285156 C 42.449219 5.285156 42.367188 5.214844 42.351562 5.121094 C 42.335938 5.011719 42.410156 4.914062 42.515625 4.898438 C 43.195312 4.796875 43.886719 4.710938 44.566406 4.640625 C 44.671875 4.632812 44.765625 4.707031 44.777344 4.816406 C 44.789062 4.921875 44.710938 5.019531 44.605469 5.027344 C 43.929688 5.097656 43.246094 5.183594 42.574219 5.285156 C 42.5625 5.285156 42.554688 5.285156 42.542969 5.285156 "/><path style=" stroke:none;fill-rule:nonzero;fill:#000000;fill-opacity:1;" d="M 39.703125 8.683594 C 39.613281 8.683594 39.535156 8.625 39.511719 8.535156 C 39.488281 8.429688 39.550781 8.324219 39.65625 8.300781 C 45.828125 6.777344 51.964844 6.664062 57.894531 7.96875 C 58 7.992188 58.066406 8.09375 58.042969 8.199219 C 58.019531 8.304688 57.917969 8.371094 57.8125 8.347656 C 51.941406 7.058594 45.863281 7.167969 39.746094 8.679688 C 39.734375 8.683594 39.714844 8.683594 39.703125 8.683594 "/><path style=" stroke:none;fill-rule:nonzero;fill:#000000;fill-opacity:1;" d="M 8.410156 77.175781 C 8.332031 77.175781 8.253906 77.1875 8.171875 77.210938 C 7.71875 77.339844 7.457031 77.816406 7.585938 78.273438 C 7.714844 78.726562 8.191406 78.992188 8.644531 78.863281 C 9.097656 78.730469 9.359375 78.253906 9.230469 77.800781 C 9.125 77.421875 8.78125 77.175781 8.410156 77.175781 Z M 8.410156 79.285156 C 7.867188 79.285156 7.367188 78.929688 7.210938 78.378906 C 7.023438 77.71875 7.40625 77.023438 8.066406 76.835938 C 8.726562 76.648438 9.417969 77.03125 9.605469 77.691406 C 9.792969 78.355469 9.410156 79.046875 8.75 79.238281 C 8.636719 79.269531 8.523438 79.285156 8.410156 79.285156 "/><path style=" stroke:none;fill-rule:nonzero;fill:#000000;fill-opacity:1;" d="M 17.621094 93.007812 C 17.574219 93.007812 17.527344 92.988281 17.488281 92.953125 C 13.90625 89.53125 11.191406 85.449219 9.417969 80.8125 C 9.378906 80.710938 9.429688 80.597656 9.527344 80.558594 C 9.628906 80.519531 9.742188 80.570312 9.777344 80.671875 C 11.535156 85.253906 14.21875 89.289062 17.757812 92.671875 C 17.835938 92.746094 17.835938 92.867188 17.761719 92.945312 C 17.726562 92.988281 17.675781 93.007812 17.621094 93.007812 "/><path style=" stroke:none;fill-rule:nonzero;fill:#000000;fill-opacity:1;" d="M 18.5625 90.15625 C 18.511719 90.15625 18.460938 90.136719 18.425781 90.097656 C 13.398438 85.070312 10.410156 77.859375 8.789062 72.695312 C 8.757812 72.59375 8.8125 72.484375 8.914062 72.453125 C 9.015625 72.421875 9.125 72.476562 9.160156 72.578125 C 10.769531 77.699219 13.730469 84.851562 18.699219 89.824219 C 18.773438 89.898438 18.773438 90.023438 18.699219 90.097656 C 18.660156 90.136719 18.613281 90.15625 18.5625 90.15625 "/><path style=" stroke:none;fill-rule:nonzero;fill:#000000;fill-opacity:1;" d="M 106.078125 22.753906 C 105.96875 22.753906 105.882812 22.664062 105.882812 22.558594 L 105.882812 21.550781 C 105.882812 21.441406 105.96875 21.355469 106.078125 21.355469 C 106.183594 21.355469 106.269531 21.441406 106.269531 21.550781 L 106.269531 22.558594 C 106.269531 22.664062 106.183594 22.753906 106.078125 22.753906 "/><path style=" stroke:none;fill-rule:nonzero;fill:#000000;fill-opacity:1;" d="M 106.078125 25.101562 C 105.96875 25.101562 105.882812 25.015625 105.882812 24.90625 L 105.882812 23.898438 C 105.882812 23.789062 105.96875 23.703125 106.078125 23.703125 C 106.183594 23.703125 106.269531 23.789062 106.269531 23.898438 L 106.269531 24.90625 C 106.269531 25.015625 106.183594 25.101562 106.078125 25.101562 "/><path style=" stroke:none;fill-rule:nonzero;fill:#000000;fill-opacity:1;" d="M 105.410156 23.425781 L 104.402344 23.425781 C 104.296875 23.425781 104.210938 23.335938 104.210938 23.230469 C 104.210938 23.121094 104.296875 23.035156 104.402344 23.035156 L 105.410156 23.035156 C 105.515625 23.035156 105.601562 23.121094 105.601562 23.230469 C 105.601562 23.335938 105.515625 23.425781 105.410156 23.425781 "/><path style=" stroke:none;fill-rule:nonzero;fill:#000000;fill-opacity:1;" d="M 107.746094 23.421875 L 106.742188 23.421875 C 106.636719 23.421875 106.550781 23.335938 106.550781 23.230469 C 106.550781 23.121094 106.636719 23.035156 106.742188 23.035156 L 107.746094 23.035156 C 107.855469 23.035156 107.941406 23.121094 107.941406 23.230469 C 107.941406 23.335938 107.855469 23.421875 107.746094 23.421875 "/><path style=" stroke:none;fill-rule:nonzero;fill:#000000;fill-opacity:1;" d="M 82.3125 102.078125 C 81.785156 102.078125 81.351562 102.511719 81.351562 103.042969 C 81.351562 103.574219 81.785156 104.007812 82.3125 104.007812 C 82.84375 104.007812 83.277344 103.574219 83.277344 103.042969 C 83.277344 102.511719 82.84375 102.078125 82.3125 102.078125 Z M 82.3125 104.398438 C 81.570312 104.398438 80.964844 103.789062 80.964844 103.042969 C 80.964844 102.296875 81.570312 101.6875 82.3125 101.6875 C 83.058594 101.6875 83.664062 102.296875 83.664062 103.042969 C 83.664062 103.789062 83.058594 104.398438 82.3125 104.398438 "/></g></svg>