<svg xmlns="http://www.w3.org/2000/svg" xmlns:xlink="http://www.w3.org/1999/xlink" width="150" zoomAndPan="magnify" viewBox="0 0 112.5 112.499997" height="150" preserveAspectRatio="xMidYMid meet" version="1.2"><defs><clipPath id="92a9529090"><path d="M 17 105 L 41 105 L 41 112.003906 L 17 112.003906 Z M 17 105 "/></clipPath><clipPath id="1d199c78b0"><path d="M 66 105 L 90 105 L 90 112.003906 L 66 112.003906 Z M 66 105 "/></clipPath><clipPath id="a36372630f"><path d="M 6.582031 19 L 32 19 L 32 44 L 6.582031 44 Z M 6.582031 19 "/></clipPath></defs><g id="32d78c9025"><path style=" stroke:none;fill-rule:evenodd;fill:#f0b16e;fill-opacity:1;" d="M 33.609375 64.675781 C 28.851562 69.941406 24.59375 75.585938 20.898438 81.664062 C 20.195312 82.820312 19.816406 83.949219 19.671875 85.296875 C 18.878906 92.828125 19.21875 100.53125 20.34375 108.351562 L 34.332031 108.351562 C 38.597656 103.710938 39.476562 98.40625 36.964844 92.429688 L 41.5625 84.527344 L 46.128906 80.507812 Z M 33.609375 64.675781 "/><g clip-rule="nonzero" clip-path="url(#92a9529090)"><path style=" stroke:none;fill-rule:evenodd;fill:#60b7fe;fill-opacity:1;" d="M 38.054688 105.101562 L 19.179688 105.101562 C 18.082031 105.101562 17.183594 106 17.183594 107.101562 L 17.183594 110.015625 C 17.183594 111.117188 18.082031 112.015625 19.179688 112.015625 L 38.054688 112.015625 C 39.152344 112.015625 40.050781 111.117188 40.050781 110.015625 L 40.050781 107.101562 C 40.050781 106 39.152344 105.101562 38.054688 105.101562 Z M 38.054688 105.101562 "/></g><path style=" stroke:none;fill-rule:evenodd;fill:#f0b16e;fill-opacity:1;" d="M 73.054688 64.675781 C 77.808594 69.941406 82.070312 75.585938 85.761719 81.664062 C 86.464844 82.820312 86.847656 83.949219 86.988281 85.296875 C 87.78125 92.828125 87.441406 100.53125 86.316406 108.351562 L 72.328125 108.351562 C 68.0625 103.710938 67.1875 98.40625 69.695312 92.429688 L 65.101562 84.527344 L 60.53125 80.507812 Z M 73.054688 64.675781 "/><g clip-rule="nonzero" clip-path="url(#1d199c78b0)"><path style=" stroke:none;fill-rule:evenodd;fill:#19cfba;fill-opacity:1;" d="M 68.605469 105.101562 L 87.480469 105.101562 C 88.578125 105.101562 89.476562 106 89.476562 107.101562 L 89.476562 110.015625 C 89.476562 111.117188 88.578125 112.015625 87.480469 112.015625 L 68.605469 112.015625 C 67.507812 112.015625 66.609375 111.117188 66.609375 110.015625 L 66.609375 107.101562 C 66.609375 106 67.507812 105.101562 68.605469 105.101562 Z M 68.605469 105.101562 "/></g><path style=" stroke:none;fill-rule:evenodd;fill:#cf8c48;fill-opacity:1;" d="M 68.957031 77.378906 C 68.402344 76.632812 68.558594 75.574219 69.304688 75.019531 C 70.050781 74.464844 71.105469 74.625 71.65625 75.371094 L 78.226562 84.269531 C 78.777344 85.015625 78.621094 86.074219 77.875 86.628906 C 77.128906 87.183594 76.078125 87.027344 75.523438 86.277344 Z M 68.957031 77.378906 "/><path style=" stroke:none;fill-rule:evenodd;fill:#cf8c48;fill-opacity:1;" d="M 34.738281 75.734375 C 35.289062 74.984375 36.34375 74.828125 37.089844 75.382812 C 37.832031 75.9375 37.992188 76.992188 37.4375 77.742188 L 30.871094 86.640625 C 30.316406 87.386719 29.265625 87.542969 28.519531 86.988281 C 27.773438 86.433594 27.617188 85.378906 28.167969 84.632812 Z M 34.738281 75.734375 "/><path style=" stroke:none;fill-rule:evenodd;fill:#4187b5;fill-opacity:1;" d="M 71.796875 45.511719 C 76.058594 56.234375 77.472656 69.488281 70.207031 79.070312 L 68.246094 76.414062 C 66.097656 78.390625 63.925781 81.0625 64.917969 84.058594 C 58.015625 88.621094 48.644531 88.621094 41.742188 84.058594 C 42.738281 81.0625 40.566406 78.390625 38.417969 76.414062 L 36.457031 79.070312 C 29.191406 69.488281 30.605469 56.234375 34.863281 45.511719 L 43.625 47.804688 C 41.265625 53.382812 39.859375 59.453125 40.460938 65.328125 C 42.257812 82.855469 64.40625 82.855469 66.199219 65.328125 C 66.800781 59.453125 65.394531 53.382812 63.035156 47.804688 Z M 71.796875 45.511719 "/><path style=" stroke:none;fill-rule:evenodd;fill:#60b7fe;fill-opacity:1;" d="M 32.828125 51.65625 C 33.378906 49.574219 34.066406 47.519531 34.863281 45.511719 L 43.628906 47.804688 C 42.785156 49.792969 42.0625 51.84375 41.511719 53.929688 Z M 32.828125 51.65625 "/><path style=" stroke:none;fill-rule:evenodd;fill:#19cfba;fill-opacity:1;" d="M 71.796875 45.511719 C 72.597656 47.519531 73.28125 49.574219 73.832031 51.65625 L 65.148438 53.925781 C 64.597656 51.84375 63.875 49.792969 63.035156 47.804688 Z M 71.796875 45.511719 "/><path style=" stroke:none;fill-rule:evenodd;fill:#4187b5;fill-opacity:1;" d="M 64.578125 30 C 65.003906 29.171875 66.015625 28.84375 66.84375 29.273438 C 67.667969 29.699219 67.992188 30.714844 67.566406 31.542969 L 65.925781 34.75 L 67.773438 35.476562 C 68.777344 35.871094 69.128906 37.042969 68.585938 37.945312 L 65.941406 42.535156 C 65.476562 43.34375 64.445312 43.617188 63.640625 43.148438 C 62.835938 42.683594 62.5625 41.652344 63.027344 40.84375 L 64.726562 37.902344 L 62.964844 37.210938 C 62.039062 36.847656 61.625 35.757812 62.082031 34.867188 Z M 64.578125 30 "/><path style=" stroke:none;fill-rule:evenodd;fill:#4187b5;fill-opacity:1;" d="M 39.09375 31.542969 C 38.667969 30.714844 38.992188 29.699219 39.820312 29.273438 C 40.644531 28.84375 41.660156 29.171875 42.085938 30 L 44.578125 34.867188 C 45.035156 35.757812 44.625 36.847656 43.695312 37.210938 L 43.699219 37.210938 L 41.9375 37.902344 L 43.632812 40.84375 C 44.097656 41.652344 43.824219 42.683594 43.019531 43.148438 C 42.214844 43.617188 41.1875 43.34375 40.722656 42.535156 L 37.933594 37.664062 C 37.59375 36.796875 38.023438 35.816406 38.886719 35.476562 L 40.738281 34.75 Z M 39.09375 31.542969 "/><g clip-rule="nonzero" clip-path="url(#a36372630f)"><path style=" stroke:none;fill-rule:nonzero;fill:#4187b5;fill-opacity:1;" d="M 31.09375 31.390625 C 31.09375 32.195312 31.015625 32.988281 30.859375 33.777344 C 30.703125 34.566406 30.472656 35.332031 30.164062 36.074219 C 29.859375 36.816406 29.484375 37.519531 29.039062 38.1875 C 28.59375 38.855469 28.085938 39.472656 27.519531 40.042969 C 26.953125 40.609375 26.335938 41.117188 25.671875 41.5625 C 25.003906 42.011719 24.300781 42.386719 23.5625 42.695312 C 22.820312 43.003906 22.058594 43.234375 21.273438 43.390625 C 20.488281 43.546875 19.695312 43.625 18.894531 43.625 C 18.09375 43.625 17.300781 43.546875 16.511719 43.390625 C 15.726562 43.234375 14.964844 43.003906 14.226562 42.695312 C 13.484375 42.386719 12.78125 42.011719 12.117188 41.5625 C 11.449219 41.117188 10.832031 40.609375 10.265625 40.042969 C 9.699219 39.472656 9.195312 38.855469 8.75 38.1875 C 8.304688 37.519531 7.929688 36.816406 7.621094 36.074219 C 7.316406 35.332031 7.082031 34.566406 6.925781 33.777344 C 6.769531 32.988281 6.691406 32.195312 6.691406 31.390625 C 6.691406 30.585938 6.769531 29.792969 6.925781 29.003906 C 7.082031 28.214844 7.316406 27.449219 7.621094 26.707031 C 7.929688 25.964844 8.304688 25.261719 8.75 24.59375 C 9.195312 23.925781 9.699219 23.308594 10.265625 22.738281 C 10.832031 22.171875 11.449219 21.664062 12.117188 21.21875 C 12.78125 20.773438 13.484375 20.394531 14.226562 20.085938 C 14.964844 19.78125 15.726562 19.546875 16.511719 19.390625 C 17.300781 19.234375 18.09375 19.15625 18.894531 19.15625 C 19.695312 19.15625 20.488281 19.234375 21.273438 19.390625 C 22.058594 19.546875 22.820312 19.78125 23.5625 20.085938 C 24.300781 20.394531 25.003906 20.773438 25.671875 21.21875 C 26.335938 21.664062 26.953125 22.171875 27.519531 22.738281 C 28.085938 23.308594 28.59375 23.925781 29.039062 24.59375 C 29.484375 25.261719 29.859375 25.964844 30.164062 26.707031 C 30.472656 27.449219 30.703125 28.214844 30.859375 29.003906 C 31.015625 29.792969 31.09375 30.585938 31.09375 31.390625 Z M 31.09375 31.390625 "/></g><path style=" stroke:none;fill-rule:evenodd;fill:#19cfba;fill-opacity:1;" d="M 25.6875 41.554688 C 21.585938 44.316406 16.199219 44.316406 12.097656 41.554688 L 12.097656 39.160156 C 12.097656 35.410156 15.15625 32.34375 18.894531 32.34375 C 22.632812 32.34375 25.6875 35.410156 25.6875 39.160156 Z M 25.6875 41.554688 "/><path style=" stroke:none;fill-rule:evenodd;fill:#f0b16e;fill-opacity:1;" d="M 18.894531 25.132812 C 21.039062 25.132812 22.777344 26.878906 22.777344 29.027344 C 22.777344 31.179688 21.039062 32.921875 18.894531 32.921875 C 16.75 32.921875 15.011719 31.179688 15.011719 29.027344 C 15.011719 26.878906 16.75 25.132812 18.894531 25.132812 Z M 18.894531 25.132812 "/><path style=" stroke:none;fill-rule:nonzero;fill:#4187b5;fill-opacity:1;" d="M 96.394531 22.738281 C 96.960938 23.308594 97.464844 23.925781 97.910156 24.59375 C 98.355469 25.261719 98.730469 25.96875 99.039062 26.710938 C 99.34375 27.453125 99.578125 28.214844 99.734375 29.003906 C 99.890625 29.792969 99.96875 30.589844 99.96875 31.390625 C 99.96875 32.195312 99.890625 32.992188 99.734375 33.777344 C 99.578125 34.566406 99.34375 35.332031 99.039062 36.074219 C 98.730469 36.816406 98.355469 37.519531 97.910156 38.1875 C 97.464844 38.855469 96.960938 39.476562 96.394531 40.042969 C 95.828125 40.609375 95.210938 41.117188 94.546875 41.566406 C 93.878906 42.011719 93.175781 42.386719 92.4375 42.695312 C 91.695312 43.003906 90.933594 43.234375 90.148438 43.390625 C 89.363281 43.546875 88.566406 43.625 87.765625 43.625 C 86.964844 43.625 86.171875 43.546875 85.386719 43.390625 C 84.601562 43.234375 83.839844 43.003906 83.097656 42.695312 C 82.359375 42.386719 81.65625 42.011719 80.988281 41.566406 C 80.324219 41.117188 79.707031 40.609375 79.140625 40.042969 C 78.574219 39.476562 78.066406 38.855469 77.621094 38.1875 C 77.179688 37.519531 76.800781 36.816406 76.496094 36.074219 C 76.1875 35.332031 75.957031 34.566406 75.800781 33.777344 C 75.644531 32.992188 75.566406 32.195312 75.566406 31.390625 C 75.566406 30.589844 75.644531 29.792969 75.800781 29.003906 C 75.957031 28.214844 76.1875 27.453125 76.496094 26.710938 C 76.800781 25.96875 77.179688 25.261719 77.621094 24.59375 C 78.066406 23.925781 78.574219 23.308594 79.140625 22.738281 C 79.707031 22.171875 80.324219 21.664062 80.988281 21.21875 C 81.65625 20.773438 82.359375 20.394531 83.097656 20.085938 C 83.839844 19.78125 84.601562 19.546875 85.386719 19.390625 C 86.171875 19.234375 86.964844 19.15625 87.765625 19.15625 C 88.566406 19.15625 89.363281 19.234375 90.148438 19.390625 C 90.933594 19.546875 91.695312 19.78125 92.4375 20.085938 C 93.175781 20.394531 93.878906 20.773438 94.546875 21.21875 C 95.210938 21.664062 95.828125 22.171875 96.394531 22.738281 Z M 96.394531 22.738281 "/><path style=" stroke:none;fill-rule:evenodd;fill:#19cfba;fill-opacity:1;" d="M 94.5625 41.554688 C 90.460938 44.316406 85.074219 44.320312 80.972656 41.554688 L 80.972656 39.160156 C 80.972656 35.410156 84.03125 32.34375 87.769531 32.34375 C 91.507812 32.34375 94.5625 35.410156 94.5625 39.160156 Z M 94.5625 41.554688 "/><path style=" stroke:none;fill-rule:evenodd;fill:#f0b16e;fill-opacity:1;" d="M 87.769531 25.199219 C 89.914062 25.199219 91.652344 26.941406 91.652344 29.089844 C 91.652344 31.242188 89.914062 32.984375 87.769531 32.984375 C 85.625 32.984375 83.886719 31.242188 83.886719 29.089844 C 83.886719 26.941406 85.625 25.199219 87.769531 25.199219 Z M 87.769531 25.199219 "/><path style=" stroke:none;fill-rule:nonzero;fill:#4187b5;fill-opacity:1;" d="M 58.046875 4.746094 C 58.789062 5.054688 59.488281 5.4375 60.152344 5.886719 C 60.816406 6.335938 61.429688 6.84375 61.996094 7.414062 C 62.558594 7.984375 63.0625 8.605469 63.503906 9.277344 C 63.945312 9.945312 64.316406 10.652344 64.621094 11.398438 C 64.925781 12.140625 65.152344 12.90625 65.304688 13.695312 C 65.457031 14.484375 65.53125 15.28125 65.527344 16.082031 C 65.523438 16.886719 65.441406 17.679688 65.28125 18.46875 C 65.125 19.257812 64.886719 20.019531 64.578125 20.761719 C 64.269531 21.5 63.890625 22.203125 63.441406 22.871094 C 62.992188 23.535156 62.484375 24.152344 61.914062 24.71875 C 61.347656 25.285156 60.726562 25.789062 60.058594 26.230469 C 59.390625 26.675781 58.6875 27.046875 57.945312 27.351562 C 57.203125 27.65625 56.441406 27.882812 55.652344 28.039062 C 54.867188 28.191406 54.074219 28.265625 53.273438 28.261719 C 52.472656 28.257812 51.679688 28.175781 50.894531 28.015625 C 50.109375 27.855469 49.347656 27.621094 48.609375 27.308594 C 47.867188 27 47.167969 26.617188 46.503906 26.167969 C 45.839844 25.71875 45.226562 25.210938 44.660156 24.640625 C 44.097656 24.066406 43.59375 23.449219 43.152344 22.777344 C 42.710938 22.109375 42.339844 21.402344 42.035156 20.65625 C 41.730469 19.914062 41.503906 19.148438 41.351562 18.359375 C 41.199219 17.570312 41.125 16.773438 41.128906 15.972656 C 41.132812 15.167969 41.214844 14.371094 41.375 13.585938 C 41.53125 12.796875 41.769531 12.035156 42.078125 11.292969 C 42.386719 10.550781 42.765625 9.847656 43.214844 9.183594 C 43.664062 8.515625 44.171875 7.902344 44.742188 7.335938 C 45.308594 6.769531 45.929688 6.265625 46.597656 5.824219 C 47.265625 5.378906 47.96875 5.007812 48.710938 4.703125 C 49.453125 4.398438 50.214844 4.167969 51.003906 4.015625 C 51.789062 3.863281 52.582031 3.789062 53.382812 3.792969 C 54.183594 3.796875 54.976562 3.878906 55.761719 4.039062 C 56.546875 4.199219 57.308594 4.433594 58.046875 4.746094 Z M 58.046875 4.746094 "/><path style=" stroke:none;fill-rule:evenodd;fill:#60b7fe;fill-opacity:1;" d="M 60.125 26.191406 C 56.023438 28.953125 50.636719 28.953125 46.535156 26.191406 L 46.535156 23.796875 C 46.535156 20.046875 49.59375 16.980469 53.332031 16.980469 C 57.066406 16.980469 60.125 20.046875 60.125 23.796875 Z M 60.125 26.191406 "/><path style=" stroke:none;fill-rule:evenodd;fill:#f0b16e;fill-opacity:1;" d="M 53.332031 9.796875 C 55.476562 9.796875 57.214844 11.542969 57.214844 13.691406 C 57.214844 15.84375 55.476562 17.585938 53.332031 17.585938 C 51.1875 17.585938 49.449219 15.84375 49.449219 13.691406 C 49.449219 11.542969 51.1875 9.796875 53.332031 9.796875 Z M 53.332031 9.796875 "/></g></svg>