<svg xmlns="http://www.w3.org/2000/svg" xmlns:xlink="http://www.w3.org/1999/xlink" width="150" zoomAndPan="magnify" viewBox="0 0 112.5 112.499997" height="150" preserveAspectRatio="xMidYMid meet" version="1.2"><defs><clipPath id="3d581f22c2"><path d="M 83.855469 2.738281 L 108.929688 2.738281 L 108.929688 27.785156 L 83.855469 27.785156 Z M 83.855469 2.738281 "/></clipPath><clipPath id="2349cbf3b9"><path d="M 21 91 L 40 91 L 40 109.511719 L 21 109.511719 Z M 21 91 "/></clipPath></defs><g id="68082f2984"><path style=" stroke:none;fill-rule:nonzero;fill:#004aad;fill-opacity:1;" d="M 38.15625 48.242188 C 38.253906 48.234375 38.347656 48.246094 38.4375 48.28125 C 41.457031 42.109375 45.492188 36.03125 50.292969 30.398438 C 36.535156 31.777344 25.6875 42.433594 23.992188 56.066406 C 24.535156 55.347656 25.132812 54.667969 25.773438 54.027344 C 29.089844 50.707031 33.488281 48.65625 38.15625 48.242188 "/><path style=" stroke:none;fill-rule:nonzero;fill:#004aad;fill-opacity:1;" d="M 31.601562 84.378906 C 38.867188 84.378906 45.46875 80.167969 48.539062 73.609375 L 38.238281 63.3125 C 31.621094 66.363281 27.363281 72.984375 27.363281 80.296875 L 27.363281 84.378906 L 31.601562 84.378906 "/><path style=" stroke:none;fill-rule:nonzero;fill:#004aad;fill-opacity:1;" d="M 38.824219 50.351562 C 37.511719 53.203125 36.417969 56.070312 35.570312 58.890625 L 38.800781 62.121094 C 38.8125 62.128906 38.820312 62.136719 38.828125 62.148438 L 49.71875 73.039062 L 52.777344 76.09375 C 55.59375 75.25 58.460938 74.15625 61.316406 72.839844 L 38.824219 50.351562 "/><path style=" stroke:none;fill-rule:nonzero;fill:#004aad;fill-opacity:1;" d="M 57.371094 85.621094 C 57.0625 85.929688 56.757812 86.257812 56.464844 86.570312 C 56.09375 86.96875 55.714844 87.375 55.316406 87.757812 C 69.132812 86.191406 79.96875 75.238281 81.320312 61.328125 C 75.597656 66.210938 69.417969 70.304688 63.144531 73.34375 C 62.710938 77.972656 60.664062 82.328125 57.371094 85.621094 "/><path style=" stroke:none;fill-rule:nonzero;fill:#004aad;fill-opacity:1;" d="M 73.761719 26.851562 C 70.714844 29.898438 70.714844 34.859375 73.761719 37.90625 C 76.808594 40.953125 81.765625 40.953125 84.8125 37.90625 C 87.859375 34.859375 87.859375 29.898438 84.8125 26.851562 C 83.289062 25.328125 81.289062 24.566406 79.289062 24.566406 C 77.285156 24.566406 75.285156 25.328125 73.761719 26.851562 "/><path style=" stroke:none;fill-rule:nonzero;fill:#004aad;fill-opacity:1;" d="M 85.691406 38.78125 C 83.925781 40.546875 81.605469 41.429688 79.289062 41.429688 C 76.96875 41.429688 74.648438 40.546875 72.882812 38.78125 C 69.351562 35.25 69.351562 29.507812 72.882812 25.976562 C 76.414062 22.445312 82.160156 22.445312 85.691406 25.976562 C 89.21875 29.507812 89.21875 35.25 85.691406 38.78125 Z M 67.640625 44.902344 L 64.5 48.042969 C 64.378906 48.164062 64.21875 48.222656 64.0625 48.222656 C 63.902344 48.222656 63.742188 48.164062 63.621094 48.042969 C 63.378906 47.800781 63.378906 47.410156 63.621094 47.164062 L 66.761719 44.027344 C 67.003906 43.785156 67.398438 43.785156 67.640625 44.027344 C 67.882812 44.269531 67.882812 44.660156 67.640625 44.902344 Z M 61.230469 51.3125 L 59.816406 52.726562 C 59.695312 52.847656 59.539062 52.90625 59.378906 52.90625 C 59.21875 52.90625 59.0625 52.847656 58.941406 52.726562 C 58.699219 52.484375 58.699219 52.089844 58.941406 51.847656 L 60.351562 50.433594 C 60.59375 50.195312 60.988281 50.195312 61.230469 50.433594 C 61.472656 50.679688 61.472656 51.070312 61.230469 51.3125 Z M 56.757812 55.785156 L 56.339844 56.203125 C 56.21875 56.324219 56.058594 56.386719 55.898438 56.386719 C 55.742188 56.386719 55.582031 56.324219 55.460938 56.203125 C 55.21875 55.960938 55.21875 55.570312 55.460938 55.328125 L 55.878906 54.910156 C 56.121094 54.667969 56.515625 54.667969 56.757812 54.910156 C 56.996094 55.152344 56.996094 55.542969 56.757812 55.785156 Z M 56.339844 25.675781 C 49.238281 32.777344 43.382812 40.886719 39.386719 49.160156 L 62.503906 72.277344 C 70.777344 68.28125 78.890625 62.429688 85.992188 55.328125 C 94.089844 47.230469 100.339844 38.0625 104.257812 28.96875 L 82.699219 7.40625 C 73.601562 11.324219 64.4375 17.578125 56.339844 25.675781 "/><g clip-rule="nonzero" clip-path="url(#3d581f22c2)"><path style=" stroke:none;fill-rule:nonzero;fill:#004aad;fill-opacity:1;" d="M 108.527344 3.136719 C 101.097656 1.976562 92.574219 3.367188 83.933594 6.890625 L 104.773438 27.730469 C 108.296875 19.09375 109.6875 10.566406 108.527344 3.136719 "/></g><path style=" stroke:none;fill-rule:nonzero;fill:#004aad;fill-opacity:1;" d="M 48.957031 92.53125 C 48.628906 92.53125 48.316406 92.660156 48.082031 92.894531 L 41.808594 99.164062 C 41.328125 99.648438 41.328125 100.433594 41.8125 100.917969 C 42.046875 101.152344 42.355469 101.28125 42.6875 101.28125 C 43.019531 101.28125 43.332031 101.152344 43.566406 100.917969 L 49.835938 94.648438 C 50.070312 94.414062 50.199219 94.101562 50.199219 93.769531 C 50.199219 93.4375 50.070312 93.128906 49.835938 92.894531 C 49.601562 92.660156 49.289062 92.53125 48.957031 92.53125 "/><g clip-rule="nonzero" clip-path="url(#2349cbf3b9)"><path style=" stroke:none;fill-rule:nonzero;fill:#004aad;fill-opacity:1;" d="M 38.027344 91.03125 C 37.695312 91.03125 37.382812 91.160156 37.148438 91.394531 L 21.5 107.046875 C 21.015625 107.527344 21.019531 108.316406 21.5 108.796875 C 21.734375 109.03125 22.046875 109.160156 22.375 109.160156 C 22.707031 109.160156 23.015625 109.03125 23.253906 108.796875 L 38.902344 93.148438 C 39.386719 92.664062 39.386719 91.878906 38.902344 91.394531 C 38.667969 91.160156 38.359375 91.03125 38.027344 91.03125 "/></g><path style=" stroke:none;fill-rule:nonzero;fill:#004aad;fill-opacity:1;" d="M 23.382812 88.269531 C 22.902344 87.785156 22.113281 87.785156 21.628906 88.269531 L 5.460938 104.4375 C 4.976562 104.917969 4.976562 105.707031 5.460938 106.1875 C 5.695312 106.421875 6.007812 106.554688 6.339844 106.554688 C 6.671875 106.554688 6.984375 106.421875 7.214844 106.1875 L 23.382812 90.023438 C 23.867188 89.539062 23.867188 88.753906 23.382812 88.269531 "/><path style=" stroke:none;fill-rule:nonzero;fill:#004aad;fill-opacity:1;" d="M 21.144531 74.503906 C 21.628906 74.019531 21.628906 73.230469 21.144531 72.75 C 20.910156 72.515625 20.597656 72.386719 20.269531 72.386719 C 20.265625 72.386719 20.265625 72.386719 20.265625 72.386719 C 19.933594 72.386719 19.625 72.515625 19.390625 72.75 L 3.464844 88.675781 C 2.980469 89.160156 2.980469 89.945312 3.460938 90.425781 C 3.695312 90.664062 4.007812 90.792969 4.339844 90.792969 C 4.671875 90.792969 4.984375 90.664062 5.21875 90.429688 L 21.144531 74.503906 "/><path style=" stroke:none;fill-rule:nonzero;fill:#004aad;fill-opacity:1;" d="M 11.5 70.757812 C 11.832031 70.757812 12.140625 70.628906 12.375 70.394531 L 19.644531 63.125 C 19.878906 62.890625 20.007812 62.582031 20.007812 62.25 C 20.007812 61.917969 19.878906 61.605469 19.644531 61.371094 C 19.164062 60.890625 18.375 60.890625 17.894531 61.371094 L 10.625 68.640625 C 10.390625 68.875 10.261719 69.1875 10.257812 69.519531 C 10.257812 69.847656 10.390625 70.160156 10.625 70.394531 C 10.855469 70.628906 11.167969 70.757812 11.5 70.757812 "/></g></svg>