<svg xmlns="http://www.w3.org/2000/svg" xmlns:xlink="http://www.w3.org/1999/xlink" width="150" zoomAndPan="magnify" viewBox="0 0 112.5 112.499997" height="150" preserveAspectRatio="xMidYMid meet" version="1.2"><defs><clipPath id="13b633cde1"><path d="M 7.957031 7.957031 L 95 7.957031 L 95 95 L 7.957031 95 Z M 7.957031 7.957031 "/></clipPath><clipPath id="c69b57c1d0"><path d="M 57 57 L 104.277344 57 L 104.277344 104.277344 L 57 104.277344 Z M 57 57 "/></clipPath></defs><g id="92d515cee5"><g clip-rule="nonzero" clip-path="url(#13b633cde1)"><path style=" stroke:none;fill-rule:nonzero;fill:#4168bb;fill-opacity:1;" d="M 94.3125 51.132812 C 94.3125 74.980469 74.980469 94.3125 51.132812 94.3125 C 27.289062 94.3125 7.957031 74.980469 7.957031 51.132812 C 7.957031 27.289062 27.289062 7.957031 51.132812 7.957031 C 74.980469 7.957031 94.3125 27.289062 94.3125 51.132812 "/></g><path style=" stroke:none;fill-rule:nonzero;fill:#e3f1ec;fill-opacity:1;" d="M 87.671875 51.132812 C 87.671875 71.316406 71.316406 87.671875 51.132812 87.671875 C 30.953125 87.671875 14.597656 71.316406 14.597656 51.132812 C 14.597656 30.953125 30.953125 14.597656 51.132812 14.597656 C 71.316406 14.597656 87.671875 30.953125 87.671875 51.132812 "/><path style=" stroke:none;fill-rule:nonzero;fill:#2e3849;fill-opacity:1;" d="M 51.132812 24.5625 C 52.050781 24.5625 52.796875 23.816406 52.796875 22.902344 L 52.796875 21.242188 C 52.796875 20.328125 52.050781 19.582031 51.132812 19.582031 C 50.21875 19.582031 49.472656 20.328125 49.472656 21.242188 L 49.472656 22.902344 C 49.472656 23.816406 50.21875 24.5625 51.132812 24.5625 "/><path style=" stroke:none;fill-rule:nonzero;fill:#2e3849;fill-opacity:1;" d="M 37.628906 24.414062 C 37.167969 23.621094 36.148438 23.351562 35.359375 23.808594 C 34.566406 24.269531 34.289062 25.28125 34.746094 26.074219 L 35.578125 27.515625 C 35.890625 28.046875 36.449219 28.34375 37.019531 28.34375 C 37.304688 28.34375 37.589844 28.273438 37.847656 28.125 C 38.640625 27.664062 38.917969 26.652344 38.457031 25.855469 L 37.628906 24.414062 "/><path style=" stroke:none;fill-rule:nonzero;fill:#2e3849;fill-opacity:1;" d="M 27.515625 35.578125 L 26.074219 34.746094 C 25.28125 34.289062 24.265625 34.566406 23.804688 35.359375 C 23.351562 36.148438 23.621094 37.167969 24.414062 37.628906 L 25.855469 38.457031 C 26.113281 38.609375 26.398438 38.679688 26.683594 38.679688 C 27.253906 38.679688 27.8125 38.378906 28.125 37.847656 C 28.578125 37.058594 28.3125 36.039062 27.515625 35.578125 "/><path style=" stroke:none;fill-rule:nonzero;fill:#2e3849;fill-opacity:1;" d="M 24.5625 51.132812 C 24.5625 50.21875 23.816406 49.472656 22.902344 49.472656 L 21.242188 49.472656 C 20.328125 49.472656 19.582031 50.21875 19.582031 51.132812 C 19.582031 52.050781 20.328125 52.796875 21.242188 52.796875 L 22.902344 52.796875 C 23.816406 52.796875 24.5625 52.050781 24.5625 51.132812 "/><path style=" stroke:none;fill-rule:nonzero;fill:#2e3849;fill-opacity:1;" d="M 25.855469 63.8125 L 24.414062 64.640625 C 23.621094 65.101562 23.351562 66.121094 23.804688 66.910156 C 24.117188 67.445312 24.671875 67.742188 25.246094 67.742188 C 25.53125 67.742188 25.816406 67.671875 26.074219 67.519531 L 27.515625 66.691406 C 28.3125 66.230469 28.578125 65.210938 28.125 64.421875 C 27.664062 63.628906 26.644531 63.351562 25.855469 63.8125 "/><path style=" stroke:none;fill-rule:nonzero;fill:#2e3849;fill-opacity:1;" d="M 37.847656 74.144531 C 37.058594 73.691406 36.039062 73.957031 35.578125 74.753906 L 34.746094 76.195312 C 34.289062 76.984375 34.566406 78.003906 35.359375 78.464844 C 35.617188 78.613281 35.902344 78.6875 36.1875 78.6875 C 36.757812 78.6875 37.316406 78.386719 37.628906 77.855469 L 38.457031 76.414062 C 38.917969 75.617188 38.640625 74.605469 37.847656 74.144531 "/><path style=" stroke:none;fill-rule:nonzero;fill:#2e3849;fill-opacity:1;" d="M 51.132812 77.707031 C 50.21875 77.707031 49.472656 78.453125 49.472656 79.367188 L 49.472656 81.027344 C 49.472656 81.941406 50.21875 82.6875 51.132812 82.6875 C 52.050781 82.6875 52.796875 81.941406 52.796875 81.027344 L 52.796875 79.367188 C 52.796875 78.453125 52.050781 77.707031 51.132812 77.707031 "/><path style=" stroke:none;fill-rule:nonzero;fill:#2e3849;fill-opacity:1;" d="M 81.027344 49.472656 L 79.367188 49.472656 C 78.453125 49.472656 77.707031 50.21875 77.707031 51.132812 C 77.707031 52.050781 78.453125 52.796875 79.367188 52.796875 L 81.027344 52.796875 C 81.941406 52.796875 82.6875 52.050781 82.6875 51.132812 C 82.6875 50.21875 81.941406 49.472656 81.027344 49.472656 "/><path style=" stroke:none;fill-rule:nonzero;fill:#2e3849;fill-opacity:1;" d="M 78.464844 35.359375 C 78 34.566406 76.984375 34.289062 76.195312 34.746094 L 74.753906 35.578125 C 73.957031 36.039062 73.691406 37.058594 74.144531 37.847656 C 74.457031 38.378906 75.015625 38.679688 75.585938 38.679688 C 75.871094 38.679688 76.15625 38.609375 76.414062 38.457031 L 77.855469 37.628906 C 78.648438 37.167969 78.917969 36.148438 78.464844 35.359375 "/><path style=" stroke:none;fill-rule:nonzero;fill:#2e3849;fill-opacity:1;" d="M 66.910156 23.808594 C 66.121094 23.351562 65.101562 23.621094 64.640625 24.414062 L 63.8125 25.855469 C 63.351562 26.652344 63.628906 27.664062 64.421875 28.125 C 64.679688 28.273438 64.964844 28.34375 65.25 28.34375 C 65.820312 28.34375 66.378906 28.046875 66.691406 27.515625 L 67.519531 26.074219 C 67.980469 25.28125 67.703125 24.269531 66.910156 23.808594 "/><path style=" stroke:none;fill-rule:nonzero;fill:#2e3849;fill-opacity:1;" d="M 62.011719 56.394531 L 52.796875 50.253906 L 52.796875 29.546875 C 52.796875 28.628906 52.050781 27.882812 51.132812 27.882812 C 50.21875 27.882812 49.472656 28.628906 49.472656 29.546875 L 49.472656 51.132812 C 49.472656 51.710938 49.773438 52.230469 50.21875 52.53125 L 60.183594 59.160156 C 60.46875 59.355469 60.78125 59.4375 61.097656 59.4375 C 61.632812 59.4375 62.164062 59.171875 62.480469 58.691406 C 62.992188 57.925781 62.777344 56.894531 62.011719 56.394531 "/><path style=" stroke:none;fill-rule:nonzero;fill:#3861b6;fill-opacity:1;" d="M 51.132812 16.257812 C 31.90625 16.257812 16.257812 31.898438 16.257812 51.132812 C 16.257812 70.363281 31.90625 86.011719 51.132812 86.011719 C 70.363281 86.011719 86.011719 70.363281 86.011719 51.132812 C 86.011719 31.898438 70.363281 16.257812 51.132812 16.257812 Z M 51.132812 89.332031 C 30.070312 89.332031 12.9375 72.199219 12.9375 51.132812 C 12.9375 30.078125 30.070312 12.9375 51.132812 12.9375 C 72.199219 12.9375 89.332031 30.078125 89.332031 51.132812 C 89.332031 72.199219 72.199219 89.332031 51.132812 89.332031 "/><path style=" stroke:none;fill-rule:nonzero;fill:#e54757;fill-opacity:1;" d="M 56.117188 51.132812 C 56.117188 53.886719 53.886719 56.117188 51.132812 56.117188 C 48.382812 56.117188 46.152344 53.886719 46.152344 51.132812 C 46.152344 48.382812 48.382812 46.152344 51.132812 46.152344 C 53.886719 46.152344 56.117188 48.382812 56.117188 51.132812 "/><g clip-rule="nonzero" clip-path="url(#c69b57c1d0)"><path style=" stroke:none;fill-rule:nonzero;fill:#66c874;fill-opacity:1;" d="M 104.277344 81.027344 C 104.277344 93.867188 93.867188 104.277344 81.027344 104.277344 C 68.191406 104.277344 57.777344 93.867188 57.777344 81.027344 C 57.777344 68.1875 68.191406 57.777344 81.027344 57.777344 C 93.867188 57.777344 104.277344 68.1875 104.277344 81.027344 "/></g><path style=" stroke:none;fill-rule:nonzero;fill:#ffffff;fill-opacity:1;" d="M 76.046875 90.992188 C 75.605469 90.992188 75.183594 90.816406 74.871094 90.503906 L 71.550781 87.183594 C 70.902344 86.535156 70.902344 85.484375 71.550781 84.835938 C 72.199219 84.1875 73.25 84.1875 73.898438 84.835938 L 75.910156 86.847656 L 88.035156 71.6875 C 88.609375 70.972656 89.65625 70.855469 90.371094 71.425781 C 91.082031 72.003906 91.199219 73.046875 90.628906 73.761719 L 77.34375 90.371094 C 77.042969 90.738281 76.609375 90.960938 76.136719 90.992188 C 76.105469 90.992188 76.078125 90.992188 76.046875 90.992188 "/></g></svg>